<svg id="Layer_1" data-name="Layer 1" xmlns="http://www.w3.org/2000/svg" viewBox="0 0 330 370"><defs><style>.cls-1{fill:#0d000d;}.cls-2{fill:#87ffdd;}</style></defs><path class="cls-1" d="M285.06,167.07c5.52,53.73,26.26,144.47-44.29,161.25-28.14.48-56-4.28-68.6,25.37-34.46,31.74-64.71-8.16-67-43.06C71.27,278.82,7.58,240,54.41,188.78c34.42-38.66.26-94.9,38.12-127.87,7.35-40.12,35.08-46.56,71.78-49.81C271.12-21.83,304.3,79.37,285.06,167.07Z"/><path class="cls-2" d="M138.18,126.61c.49-.12.7.22.81.56.45,1.41.93,2.81,1.29,4.24a10.63,10.63,0,0,0,1.85,3.79c.26.34.45.74.73,1.06a2.44,2.44,0,0,0,.82.72,1.9,1.9,0,0,0,2.6-1.29,12.45,12.45,0,0,0,.46-3.46,10.12,10.12,0,0,1,.22-2.55,19.68,19.68,0,0,0,.11-5c-.11-.91-.09-1.84-.18-2.75a23.81,23.81,0,0,0-.43-3.48,19.31,19.31,0,0,1-.27-5.31,2.43,2.43,0,0,1,.08-.54.83.83,0,0,1,1.44-.4,9,9,0,0,1,2,2.68,12.49,12.49,0,0,0,.68,1.31,3.69,3.69,0,0,0,1.64,1.46,1.22,1.22,0,0,0,1.51-.24,7.22,7.22,0,0,0,2.26-3.73,29.93,29.93,0,0,0,.91-5.24c.05-.79.08-1.58.13-2.37a.66.66,0,0,1,.85-.49c.5.24,1,.56,1.49.76a3.36,3.36,0,0,0,3.42-.79.75.75,0,0,0,.22-.29c.42-1.4,1.33-2.65,1.25-4.21a17.54,17.54,0,0,1,.12-2.4,2.91,2.91,0,0,1,.27-1.05.94.94,0,0,1,1.66-.22,11.27,11.27,0,0,1,1,1.74c.26.48.41,1,.68,1.5a3.87,3.87,0,0,0,.89,1.18c1.71,1.39,3.76,1.47,4.83-1a10,10,0,0,0,.59-2.31,2.85,2.85,0,0,1,1-2,2.49,2.49,0,0,1,1.74.87,3.9,3.9,0,0,0,3.14.82,1.48,1.48,0,0,0,1.21-.73,10.78,10.78,0,0,0,.86-1.82,3.86,3.86,0,0,1,1.58-2,11.14,11.14,0,0,1,2.22,1.3,2.3,2.3,0,0,0,2.91-.22,1.4,1.4,0,0,0,.66-1.06,4.94,4.94,0,0,1,.88-2.2,1.29,1.29,0,0,1,2-.48,2.9,2.9,0,0,1,.76.8c.38.63.71,1.29,1,2a4.81,4.81,0,0,0,1.74,2.11,2.78,2.78,0,0,0,3.16-.06,4.49,4.49,0,0,0,2.21-3.44,15.62,15.62,0,0,1,.32-2.16,3.09,3.09,0,0,1,2-2.49,1.15,1.15,0,0,1,1.49.39,7.34,7.34,0,0,1,1,1.75,15.57,15.57,0,0,1,.8,2.84c.32,1.94,1.58,3.31,2.8,4.69a1.44,1.44,0,0,0,2,.16c.48-.29.92-.63,1.37-.95a2,2,0,0,0,.85-1.37,14.65,14.65,0,0,1,.56-2.14,2.36,2.36,0,0,1,1.7-1.76c.58.2.63.74.82,1.17a7.13,7.13,0,0,0,1.74,2.59,5.78,5.78,0,0,0,.9.66,1.22,1.22,0,0,0,2-.82c.18-.71.27-1.45.46-2.16A3.68,3.68,0,0,1,224.38,90a5.09,5.09,0,0,1,2.13,2.61c.45,1,.79,2.07,1.18,3.11.9,2.42,1.83,4.84,2.69,7.27a8.9,8.9,0,0,0,3,3.69,1,1,0,0,0,1.21,0c.41-.29.83-.55,1.26-.8a3.34,3.34,0,0,0,1.84-2.81c.06-1.1,0-2.21,0-3.31-.05-.86-.16-1.71-.24-2.57s-.18-1.46-.23-2.19a3.71,3.71,0,0,1,.38-2.59,4.14,4.14,0,0,1,.93.67,11.56,11.56,0,0,1,2.36,6.11,17.44,17.44,0,0,0,1.39,5.53,3.71,3.71,0,0,0,.27.68c.43.6.89,1.29,1.67,1.34s1-.76,1.37-1.34l.32-.56c.49-.06.62.27.8.5.33.44.63.91,1,1.36a2.17,2.17,0,0,0,2.66.72c.7-.22,1.37-.54,2-.79.75.42.88,1.12,1.2,1.71a21.38,21.38,0,0,0,1.49,2.54c1,1.31,1.53,1.41,3.29.81a3.57,3.57,0,0,1,.47.72c.55,1.5,1.08,3,1.61,4.52a1.27,1.27,0,0,1,.06.18c.84,3.81,1.37,7.65.57,11.52a9.7,9.7,0,0,1-1.56,4.3,3.17,3.17,0,0,0-.43,1.21,27.9,27.9,0,0,0-1,7.1,21.11,21.11,0,0,0,2.38,8.65,41.31,41.31,0,0,1,3.38,8.77,19,19,0,0,1,.43,2.35c.18,1.65.4,3.31.42,5a25.1,25.1,0,0,1-1,8.39c-.75,2.22-1.37,4.48-2.05,6.71a18.1,18.1,0,0,1-.66,1.92c-1.36,3.18-2.7,6.35-4.14,9.49a40.51,40.51,0,0,1-2.6,4.46,28.71,28.71,0,0,0-2.74,5.83c-1.06,3-2.49,5.89-3.78,8.82a56.73,56.73,0,0,0-2.41,6,29.27,29.27,0,0,1-2.83,6.6c-1.15,1.89-2.12,3.9-3.13,5.87a127.3,127.3,0,0,1-7.24,12.69c-.51.77-.93,1.6-1.49,2.34a14.2,14.2,0,0,1-5.95,4.89c-.46.19-.9.44-1.34.65a6.71,6.71,0,0,1-2.84.76,40.55,40.55,0,0,0-4.07.55c-1.17.15-2.34.32-3.52.4q-4.28.3-8.56.51c-1.11,0-2.24,0-3.36-.07s-2.18.38-3.31.2-2.23-.17-3.35-.22-2.24-.11-3.35-.13a9.41,9.41,0,0,1-6.58-3,22.38,22.38,0,0,0-2-1.91,30.79,30.79,0,0,1-5.13-5c-.31-.38-.68-.71-1-1.06a20.12,20.12,0,0,1-2.35-2.85c-.76-1.11-1.7-2.11-2.5-3.2-1-1.43-2-3-3.06-4.35a15.78,15.78,0,0,1-1.6-3,14.73,14.73,0,0,0-3-4.63c-.34-.32-.65-.72-1.2-.7,0,.18-.11.33-.07.38a13.15,13.15,0,0,1,1.66,3.28,34.81,34.81,0,0,0,5.48,9.81c1.6,1.95,3.11,4,4.68,6a17.66,17.66,0,0,0,1.35,1.52,96.14,96.14,0,0,0,10.32,9.33,10.08,10.08,0,0,0,5.67,2.12c1.42.09,2.85.23,4.28.3.87,0,1.74,0,2.61,0,1.49-.06,3-.23,4.48-.22a56.41,56.41,0,0,0,6.5-.39c1.42-.16,2.84-.33,4.27-.44a28.42,28.42,0,0,0,4.94-.89,3.82,3.82,0,0,1,1.28-.21,6,6,0,0,0,4-1,4.41,4.41,0,0,1,1-.4,11.27,11.27,0,0,0,3.18-1.85,19.47,19.47,0,0,0,5-6.11c.69-1.23,1.59-2.35,2.28-3.58,1.75-3.11,3.43-6.27,5.14-9.4.71-1.29,1.47-2.56,2.16-3.87a18.17,18.17,0,0,0,.86-2,12.28,12.28,0,0,1,1.43-3,3.65,3.65,0,0,0,.45-1c.2-.58.41-1.16.56-1.75.65-2.58,2.17-4.82,3-7.32a.87.87,0,0,1,.07-.17,21.82,21.82,0,0,0,2.81-7.72c0-.12,0-.27.11-.35.86-1,1.09-2.34,1.75-3.44a2.55,2.55,0,0,1,.29-.48c2.16-2.07,3-4.94,4.43-7.4.44-.73.68-1.58,1-2.36a3.62,3.62,0,0,1,.52-.65c.55.29.41.69.36,1a24,24,0,0,0,.28,6.61c.15,1.22.35,2.44.39,3.67a81.42,81.42,0,0,0,2.67,15.8c1.06,4.5,2.33,8.93,3.67,13.34.47,1.53.77,3.1,1.19,4.64.67,2.44,1.35,4.87,2.07,7.29a47.86,47.86,0,0,1,1.47,7.78,110.17,110.17,0,0,1,.71,11,27.53,27.53,0,0,1-.52,5.12c-.48,2.94-1.67,5.66-2.48,8.49a3.71,3.71,0,0,1-.3.68c-1.78,3.31-3.55,6.63-6.39,9.23a2.07,2.07,0,0,0-.37.61s0,.11.05.23a1.07,1.07,0,0,0,1.28-.43c1.6-2,3.55-3.8,4.52-6.28.47-1.2,1-2.37,1.55-3.54a7.36,7.36,0,0,1,.6-1.15,11.88,11.88,0,0,0,1.72-4.82c.25-1.58.62-3.14.91-4.71a10,10,0,0,0,.16-1.64c0-2.34,0-4.68,0-7a5,5,0,0,0,0-.55c-.43-3.61-.79-7.22-1.33-10.8a33.36,33.36,0,0,0-1.29-5.19,100.5,100.5,0,0,1-2.66-10.55c-.23-1.14-.49-2.28-.74-3.42a1.07,1.07,0,0,0-.1-.36c-1.13-1.62-1.15-3.6-1.78-5.38a14.49,14.49,0,0,1-.74-2.65,8.69,8.69,0,0,0-.76-2.64,3.69,3.69,0,0,1-.24-.88c-.51-2.84-1.18-5.67-1.47-8.54-.21-2-.4-4-.61-6-.16-1.59-.32-3.18-.41-4.77-.06-1.22,0-2.46,0-3.68,0-.8.1-1.6.07-2.4a5.23,5.23,0,0,1,.6-3,.53.53,0,0,0,.08-.17c.21-2,1.39-3.8,1.8-5.79a4.52,4.52,0,0,1,.25-.89c1.26-3,1.39-6.22,1.75-9.39a4.76,4.76,0,0,0,0-.92c-.32-2.87-.27-5.77-.73-8.63a3.87,3.87,0,0,0-.17-.9c-.82-2-.87-4.34-2.13-6.27a6.48,6.48,0,0,1,.57-1,4.9,4.9,0,0,0,.86-2c.27-1.2.49-2.41.78-3.6.17-.72.44-1.41.64-2.12s.35-1.43.56-2.13c.3-1,.63-2,.95-3a8.68,8.68,0,0,0,.34-1.06c.57-3.51,1.4-7,1.45-10.57,0-1.84.21-3.67.3-5.51a29.11,29.11,0,0,0-.47-6.78c-.56-2.89-1-5.81-1.48-8.72a2.86,2.86,0,0,0-.13-.73c-.74-1.71-.85-3.57-1.37-5.33s-1.11-3.5-1.72-5.24-1.17-3.23-1.82-4.82c-.53-1.31-1.15-2.58-1.7-3.88-.43-1-.83-2.05-1.24-3.08l-3.19-7.86c-.41-1-.71-2.1-1.22-3.08a33.81,33.81,0,0,0-2.51-4.9,17.76,17.76,0,0,1-1.79-3.63,13.78,13.78,0,0,0-2-3.07,4.81,4.81,0,0,1-.69-1.26,16.32,16.32,0,0,0-1.45-2.78c-.84-1.28-1.74-2.54-2.69-3.75s-2.13-2.55-3.2-3.83c-.19-.23-.28-.54-.47-.78a4.45,4.45,0,0,0-1.05-1.25,20.15,20.15,0,0,1-3-2.79c-2-1.88-3.73-4.11-5.91-5.86-.43-.35-.75-.82-1.16-1.19a34.27,34.27,0,0,0-5-3.54l-.93-.61a14.43,14.43,0,0,0-3.27-1.74A20,20,0,0,1,217.82,29c-.62-.28-1.27-.48-1.9-.71a9.44,9.44,0,0,1-1.06-.36,9,9,0,0,0-4.08-1.18,1.65,1.65,0,0,1-.72-.2,13.23,13.23,0,0,0-3.68-1.25c-.48-.1-.93-.35-1.41-.44A48.66,48.66,0,0,1,198,23a4.76,4.76,0,0,0-2.75-.1,6.81,6.81,0,0,1-4.2-.26,29.08,29.08,0,0,0-3.57-1,1.83,1.83,0,0,0-.93,0c-2.13.62-4.44.61-6.45,1.69a4.53,4.53,0,0,1-1,.26c-.23.39-.51.79-.73,1.22-.53,1-.52,1,.58,2,.29-.13.63-.26.95-.41a46.05,46.05,0,0,1,6-1.92,6.74,6.74,0,0,1,4.39.06,11.4,11.4,0,0,0,5.69.68,16,16,0,0,1,6.45.75c3.36.86,6.72,1.78,10,2.78a49.07,49.07,0,0,1,10.54,4.65c.53.31,1.09.59,1.63.89A27.4,27.4,0,0,1,231,39.36c2.44,2.54,4.9,5.06,7.32,7.62.86.89,1.67,1.83,2.44,2.79q2.21,2.74,4.32,5.55a21.05,21.05,0,0,1,1.12,1.9c1.23,2.07,2.48,4.12,3.7,6.18a11.89,11.89,0,0,1,1,2,38.26,38.26,0,0,0,2.6,5.3,19.36,19.36,0,0,1,.9,1.83c2.11,5.06,4.15,10.14,6.32,15.17,1.57,3.62,2.95,7.31,4.21,11a45.43,45.43,0,0,1,1.6,6.43c.49,2.66.78,5.35,1.15,8a5.56,5.56,0,0,0,.14.91c.89,3.09.6,6.23.39,9.35-.18,2.51-.43,5-.77,7.52a43.91,43.91,0,0,1-1.68,7.75c-.67,2.05-1.37,4.08-2,6.15-.28.94-.38,1.92-.57,2.89-.16.77-.34,1.54-.52,2.36-.84-.21-1-.87-1.24-1.39a23.62,23.62,0,0,1-1-2.57,10.54,10.54,0,0,1-.65-3.22c0-1.2-.31-2.41-.25-3.64a9.16,9.16,0,0,1,.59-3.24c.59-1.36,1.11-2.74,1.72-4.08a10.53,10.53,0,0,0,.75-4.34,47.08,47.08,0,0,0-.17-6,19.9,19.9,0,0,0-4.08-10.74c.09-.51.15-1.06.28-1.59a9.1,9.1,0,0,0-.77-6.09c-.07-.17-.35-.26-.54-.38-.11.19-.33.39-.33.59,0,.79.14,1.59.18,2.39a4.25,4.25,0,0,1-1.28,3.44c-.26-.22-.62-.38-.77-.65-.41-.76-.74-1.56-1.08-2.34a8.09,8.09,0,0,0-.34-.86,3.34,3.34,0,0,0-1.82-1.51c-.59-.18-1,.3-1.53.55l-.49.28c-1.11.54-1.32.46-2.1-.63a10.43,10.43,0,0,0-2.4-2.94,1.09,1.09,0,0,0-1,.77c-.23.48-.4,1-.58,1.44-.48.06-.49-.25-.54-.45-.38-1.61-1.12-3.15-1-4.85-.5-1.25-1-2.51-1.51-3.75-.25-.56-.61-1.07-.88-1.62a5.56,5.56,0,0,0-1-1.5,16,16,0,0,1-1.47-2,4.86,4.86,0,0,0-.9.71,3.91,3.91,0,0,0-.78,2.78c.13,2,.29,3.93.43,5.89a13.7,13.7,0,0,1,.07,2.39,4,4,0,0,1-2.16,3.32,4.47,4.47,0,0,1-2.53-2.53c-.59-1.49-1.09-3-1.65-4.5-.23-.63-.52-1.25-.78-1.87a7.22,7.22,0,0,1-.56-1.36A20.79,20.79,0,0,0,227.36,91a8.15,8.15,0,0,0-3-3.64,1.19,1.19,0,0,0-1.4-.09,3.82,3.82,0,0,0-1.9,2.41c-.2.71-.32,1.44-.47,2.16a2.07,2.07,0,0,1-.92,1.59,3,3,0,0,1-1.51-2,8.08,8.08,0,0,0-1.66-2.94,3,3,0,0,0-3.25,2.09c-.32.87-.53,1.77-.8,2.65a2.63,2.63,0,0,1-2.21,2,6.65,6.65,0,0,1-1.84-2.74,12.24,12.24,0,0,1-.68-2.1c-.3-1.68-1.33-3-2-4.53a1.57,1.57,0,0,0-1.62-1,3.79,3.79,0,0,0-3.72,2.25,15.89,15.89,0,0,0-.71,2.47c-.15.6-.2,1.22-.35,1.82a2.49,2.49,0,0,1-2.1,1.86,1.58,1.58,0,0,1-1.7-.88c-.77-1.26-1.54-2.53-2.36-3.86-.75-.26-1.55-.57-2.38-.81a1.64,1.64,0,0,0-1.83.59,5.86,5.86,0,0,0-1.19,2.47c-.41,1.75-.94,1.94-2.37.87a10.07,10.07,0,0,0-1.19-.87,7,7,0,0,0-1.22-.4,4.34,4.34,0,0,0-1.9,2.23c-.33.67-.59,1.37-.95,2a1.43,1.43,0,0,1-2.33.53A8.47,8.47,0,0,1,176.45,94c-1-1.06-1.83-1.11-2.84-.12a3.3,3.3,0,0,0-1.12,2.63,6.56,6.56,0,0,1-.06,1.47,3.65,3.65,0,0,1-.46,1.2,1.36,1.36,0,0,1-2.33.15c-1-1.44-2.06-2.92-3-4.44a2.49,2.49,0,0,0-1.3-1.22A4.46,4.46,0,0,0,162,97.6c-.14,1.1-.16,2.21-.24,3.31a8.81,8.81,0,0,1-.12,1.46,1.43,1.43,0,0,1-2.41.86l-.13-.12c-1.84-1.59-2.47-.87-3.51.38a5,5,0,0,0-1.06,3.08c-.09,1.47-.19,3-.4,4.41a25,25,0,0,1-.81,3c0,.16-.21.28-.36.46a3.4,3.4,0,0,1-1.83-1.71c-.27-.61-.68-1.16-1-1.75a5.89,5.89,0,0,0-2-2,1.62,1.62,0,0,0-2.07.07,6.22,6.22,0,0,0-2.35,3.24,8.71,8.71,0,0,0-.31,3.29c.13,1.1.25,2.2.44,3.29a48.55,48.55,0,0,1,.91,9.16c0,1.41-.15,2.83-.24,4.24a1.78,1.78,0,0,1-.17.49.68.68,0,0,1-.73-.49,13.78,13.78,0,0,1-1.58-4.88,5,5,0,0,0-.87-2.4c-.53-.82-1-1.71-1.48-2.54a2.69,2.69,0,0,0-.75-.79,1.54,1.54,0,0,0-2.06,0c-.66.55-1.26,1.18-2,1.85l-1.57-.36a1.74,1.74,0,0,0-.47.24c-.86.71-1.71,1.42-2.55,2.16a7.36,7.36,0,0,0-2,3.09c-.05.11,0,.25-.1.35-1.2,2.09-.93,4.26-.42,6.46.29,1.26.46,2.54.68,3.81a4.24,4.24,0,0,0,.23,1.08,1.89,1.89,0,0,1,0,1.76,1.92,1.92,0,0,0,.05,1.62c.83,2.18,1.6,4.38,2.59,6.51A30.76,30.76,0,0,1,134,157a38.1,38.1,0,0,1,1.24,10.41c-.18,2.7-.34,5.4-.5,8.1a7.94,7.94,0,0,0,0,1.29c.29,3.12.4,6.27,1.4,9.28.39,1.17.74,2.35,1.21,3.48.8,1.93,1.64,3.85,2.56,5.72a13.83,13.83,0,0,0,1.62,2.47,20,20,0,0,1,4,10.75,19.7,19.7,0,0,1,0,2c0,.41,0,.83,0,1.43.38-.19.72-.25.85-.44a4.34,4.34,0,0,0,.87-2.78,36.08,36.08,0,0,0-1.66-8.48,3,3,0,0,0-.37-.84c-1.76-2.25-2.85-4.9-4.48-7.23a7.93,7.93,0,0,1-.74-1.68c-.54-1.37-1-2.8-1.59-4.13a19,19,0,0,1-1.31-5.54c0-.18.05-.38,0-.55a18.92,18.92,0,0,1-.31-5.31c.05-1.77.15-3.54.23-5.31a5.11,5.11,0,0,0,0-.55c-.15-2.57-.32-5.15-.46-7.73a25.23,25.23,0,0,0-2.15-8.35c-.54-1.31-1.13-2.6-1.64-3.91a3,3,0,0,1-.34-1.6,7,7,0,0,0-.57-3.94,4,4,0,0,1-.28-2.69,1.39,1.39,0,0,0,0-.73c-.4-1.66-.72-3.36-1.26-5a4.61,4.61,0,0,1,.31-4c.38-.64.77-1.27,1.15-1.9.13-.21.26-.42.4-.62,1.73-2.31,2.17-2.27,4.53-1.44.29.11.58.2,1,.33.19-.36.34-.67.51-1-.28-.48-.57-.95-.82-1.43-.05-.11.06-.29.13-.62C138.15,125.23,138.47,125.82,138.18,126.61Z"/><path class="cls-2" d="M81.07,244.51l1.88.12a6.47,6.47,0,0,1-.11,2.26,9.61,9.61,0,0,0,3.59,8.67,1.69,1.69,0,0,0,2.35-.13,2.65,2.65,0,0,0,.28-.47c.28-.42,1.25-.34,1-1.13-.23-.61-.91-.15-1.34-.33a3.12,3.12,0,0,1-.92-.58,7.62,7.62,0,0,1-2.13-6.61,24.52,24.52,0,0,1,1-3.91c.62-2,1.31-4,1.94-6a5.06,5.06,0,0,0,.25-1.44,53.29,53.29,0,0,0,.18-5.51c-.17-1.83-.07-3.69-.2-5.52a20.9,20.9,0,0,0-1.32-5.55,20.41,20.41,0,0,1-1.24-4,3.58,3.58,0,0,0-.23-.7A31.25,31.25,0,0,1,84.39,205a15.17,15.17,0,0,1,1.15-7.38,7.54,7.54,0,0,0,.5-4,1.09,1.09,0,0,0-.87-1.05c-.56.14-.74.6-.93,1.06-.47,1.14-.93,2.28-1.42,3.4a11.13,11.13,0,0,0-1,3.72,33.83,33.83,0,0,0,1,10.61c.6,2.44,1.27,4.88,2,7.28a34.45,34.45,0,0,1,1.52,8.7c.09,1.65,0,3.32,0,5A17.83,17.83,0,0,1,85,239.54c-.55,1.3-1.06,2.61-1.58,3.9l-.22,0a1.17,1.17,0,0,1-.09-.32c-.18-.91-.39-1.8-.5-2.71a8.08,8.08,0,0,0-1.69-3.84,26.72,26.72,0,0,0-5.3-5.16L73,229.37c-.87-.69-1.74-1.39-2.62-2.07s-1.55-1.22-2.35-1.81a9.54,9.54,0,0,1-3.45-4.92c-.36-1.12-.79-2.21-1.1-3.33a8.94,8.94,0,0,1-.35-2.17c0-1.29,0-2.59.09-3.88a8.16,8.16,0,0,1,1.36-3.58c.44-.74,1-1.42,1.49-2.11.66-.89,1.34-1.77,2-2.67.83-1.15,1.63-2.32,2.47-3.47a33.59,33.59,0,0,1,4.09-4.51,71.92,71.92,0,0,0,6.31-6.28,44.88,44.88,0,0,0,2.79-3.67,16.93,16.93,0,0,0,1.76-3.44,22,22,0,0,1,2.63-4.63,6,6,0,0,0,.68-1.09c.73-2.15,1.41-4.31,2.13-6.46a14.89,14.89,0,0,0,.34-7.29c-.19-1.21-.47-2.4-.72-3.6a6.31,6.31,0,0,1-.18-2.53,15.71,15.71,0,0,0,.17-3.63,39.46,39.46,0,0,1,.55-6.6,43.83,43.83,0,0,1,1.43-8.34,33.08,33.08,0,0,0,.57-3.45c.5-2.59,1-5.18,1.55-7.76.36-1.68.82-3.33,1.23-5a2.18,2.18,0,0,0,.15-.54,17.32,17.32,0,0,1,1.21-5.36,70.39,70.39,0,0,1,4.44-11.9A15.46,15.46,0,0,1,104.81,99a1.76,1.76,0,0,0,.47-.56,4.61,4.61,0,0,1,2-2,4.28,4.28,0,0,1,1.39-2.25A13.66,13.66,0,0,0,112,87.14c.27-1.51.55-3,1-4.5.36-1.3,1-2.52,1.37-3.8.81-2.75,2.46-5.1,3.58-7.69a49.63,49.63,0,0,1,2.63-4.87c.92-1.6,1.71-3.27,2.56-4.91.17-.32.36-.64.56-.95.4-.62.86-1.2,1.23-1.84,1.27-2.17,2.52-4.35,3.78-6.53a4.63,4.63,0,0,1,.31-.46l4.93-6.93c.25-.35.43-.75.68-1.1a7.72,7.72,0,0,1,1.8-2.07,18.18,18.18,0,0,0,1.84-1.57,100,100,0,0,1,8.58-6.76,18.32,18.32,0,0,1,6.2-2.85c3.18-.86,6.33-1.83,9.5-2.73,1.55-.45,3.11-.88,4.67-1.29a5.69,5.69,0,0,1,1.47-.22,37.3,37.3,0,0,1,6.33.45,2.42,2.42,0,0,0,2.43-.46,1.23,1.23,0,0,0-.85-1.27,1.51,1.51,0,0,0-.52-.2c-1.85-.13-3.64-.79-5.52-.72a9.3,9.3,0,0,1-3.32-.21,2,2,0,0,0-1.28.08,21.89,21.89,0,0,1-5.37,1.39,62.24,62.24,0,0,0-7.12,2.17l-1.42.44c-1.49.44-3,.86-4.46,1.33a4.27,4.27,0,0,0-1.13.61c-2.19,1.53-4.37,3-6.52,4.63a22.42,22.42,0,0,0-2.68,2.28c-1.7,1.71-3.4,3.42-4.94,5.26s-2.75,3.65-4.07,5.51c-.85,1.21-1.66,2.46-2.44,3.71a141.56,141.56,0,0,0-7.45,13,9.18,9.18,0,0,1-.52,1,78.34,78.34,0,0,0-5.62,11.63,53.76,53.76,0,0,0-2.34,7.18c-.49,2-1.11,4-1.67,6a5.44,5.44,0,0,1-1.28,2.22c-1.73,1.94-3.47,3.87-5.19,5.81A19.19,19.19,0,0,0,98,103.64,119.64,119.64,0,0,0,93.36,119c-.33,1.38-.77,2.73-1.09,4.1-.46,2-1,4-1.24,6-.25,1.7-.52,3.4-.83,5.09s-.64,3.5-1,5.24A57.37,57.37,0,0,0,87.82,150c0,.71.21,1.5-.46,2.08a14.73,14.73,0,0,0,0,2.74c.33,1.75.88,3.46,1.25,5.2a17.57,17.57,0,0,1-.53,10c-1,2.56-2.38,4.87-3.52,7.32-.75,1.62-1.57,3.21-2.36,4.81a3.47,3.47,0,0,1-.38.61,19.71,19.71,0,0,0-2.6,3.36c-.25.46-.81.74-1.21,1.13-2.16,2.13-4.33,4.24-6.45,6.4a24.3,24.3,0,0,0-2.8,3.21c-1.24,1.85-2.87,3.39-4.08,5.25a53.64,53.64,0,0,0-3.52,5.65,13.05,13.05,0,0,0-1,5.59,25.93,25.93,0,0,0,2.47,10.32,11,11,0,0,0,4,4.71,73.17,73.17,0,0,1,6.07,4.59c.83.73,1.78,1.34,2.66,2a14,14,0,0,1,3.13,3.15,10.34,10.34,0,0,1,1.93,4.74A2.38,2.38,0,0,0,81.07,244.51Z"/><path class="cls-2" d="M134.19,242.19c.8-1.67,1.56-3.36,2.41-5a20.08,20.08,0,0,0,1.69-5.81,60.27,60.27,0,0,0,.67-8.27,38.62,38.62,0,0,0-.85-9.15,6.6,6.6,0,0,1-.15-.72,16,16,0,0,0-1.42-4.92,42.93,42.93,0,0,0-2.09-5.12c-.23-.43-.48-.86-.72-1.28-.12-.21-.29-.41-.39-.63-.73-1.69-1.43-3.4-2.18-5.08-.45-1-1-2-1.48-3-.23-.43-.53-.83-.76-1.27-1.6-3.12-3.48-6.09-5.28-9.1a55.58,55.58,0,0,1-3.19-6.42c-1.44-3.28-2.39-6.72-3.64-10.05a11.54,11.54,0,0,1-.56-2.32c-.21-1.52-.31-3-.5-4.57a16.08,16.08,0,0,0-.44-2.15c0-.2-.29-.36-.41-.5-.58.08-.66.47-.68.82a26.39,26.39,0,0,0,.67,7.86,53.37,53.37,0,0,0,2.73,7.64,15.64,15.64,0,0,1,.64,1.73,31.87,31.87,0,0,0,2,4.95c.4.76.67,1.59,1.06,2.36.74,1.42,1.49,2.83,2.29,4.22s1.58,2.51,2.27,3.81c2.33,4.42,4.68,8.82,6.89,13.29a43.1,43.1,0,0,1,4.33,15.38,50.41,50.41,0,0,1-.35,12.15,23.21,23.21,0,0,1-4,9.66,2.38,2.38,0,0,1-1.81,1.11c-.75,2.18-2.36,3.67-4,5.11a50.84,50.84,0,0,0-5.29,5.19,3.17,3.17,0,0,1-1.9,1.11,5.47,5.47,0,0,1-1.92,2.88,40.31,40.31,0,0,0-4.85,5.1,10.72,10.72,0,0,0-.79,1c-.79,1.33-1.62,2.63-2.28,4a10.66,10.66,0,0,0-1.1,4.64c0,.88.52,1.19,1.37.94a1.62,1.62,0,0,0,1.31-1.59c.06-2.67,1.38-4.77,2.89-6.85a20.93,20.93,0,0,1,3.57-3.95c.61-.5,1-1.25,1.85-1.65a3.12,3.12,0,0,1,.48.77c.52,2,1.1,3.91,1.49,5.9a27.15,27.15,0,0,0,2.34,7.17,13.91,13.91,0,0,0,2.51,3.41,30.4,30.4,0,0,0,4.33,3.77,18,18,0,0,0,7.51,3.09,55.87,55.87,0,0,0,9.49.57,16.66,16.66,0,0,1,5.15.77,44.84,44.84,0,0,1,8.14,3.2,28.59,28.59,0,0,1,6.81,5.41,9.35,9.35,0,0,1,1.9,3.36,37.9,37.9,0,0,1,1.85,6.77,9.65,9.65,0,0,1-.21,4.74,25,25,0,0,1-2.31,5.43,3.93,3.93,0,0,1-.41.52c-.45.05-.46-.26-.49-.46a14.57,14.57,0,0,0-2.6-5.46,26.82,26.82,0,0,0-3.52-4c-.39-.4-.75-.82-1.14-1.21a.75.75,0,0,0-1-.15.81.81,0,0,0-.26,1,3.63,3.63,0,0,0,.61.91c1,1.12,2,2.23,2.92,3.35a14.46,14.46,0,0,1,2.27,3.81,8.9,8.9,0,0,1,.45,5.08c-.33,2-.73,4-1.05,6a10,10,0,0,0,1.35,6.91,4.75,4.75,0,0,0,1.58,1.64,4.38,4.38,0,0,0,.84-.23,1.36,1.36,0,0,0,.42-2.38c-.17-.18-.38-.32-.56-.5a4.36,4.36,0,0,1-1.06-2.07c-.54-1.89.08-3.64.32-5.45,0-.36.18-.72.25-1.08a8.84,8.84,0,0,1,1.88-3.91,9.83,9.83,0,0,0,1.22-2.05,18.5,18.5,0,0,0,1.82-11.81,34.87,34.87,0,0,0-2.71-8.37,7.18,7.18,0,0,0-1.12-1.67,34.51,34.51,0,0,0-5.51-4.95,16.5,16.5,0,0,0-3.06-1.75,26,26,0,0,0-7.4-2.47,3.16,3.16,0,0,1-.9-.24c-1.78-.78-3.75-.78-5.6-1.28a1.52,1.52,0,0,0-.56,0,20.62,20.62,0,0,1-6.46-.49,17.22,17.22,0,0,1-2.74-.89,1.39,1.39,0,0,1,.52-1.42,19.62,19.62,0,0,0,2.87-3.62,20.58,20.58,0,0,0,2.85-7.73c.09-.85.31-1.69.36-2.55a27,27,0,0,0-1.66-9.73,24.28,24.28,0,0,0-2.16-4.64c-1.15-2-2.32-4.1-4.51-5.3A2.27,2.27,0,0,1,134.19,242.19Zm1.13,35.65a2.83,2.83,0,0,1-.77-.08,19.29,19.29,0,0,1-2.23-1.33c-1-.78-1.92-1.74-3-2.49a10.58,10.58,0,0,1-3.28-4.41,26.3,26.3,0,0,1-1.79-5.42c-.43-1.93-1.09-3.77-1.67-5.65a17.77,17.77,0,0,1-.53-2.51,1,1,0,0,1,.23-.85c.93-.58,1.28-1.63,2.06-2.34,1.33-1.2,2.59-2.47,3.86-3.73a16.2,16.2,0,0,0,1.21-1.4c.71-.85,1.4-1.72,2.1-2.58a1.32,1.32,0,0,1,1.33-.47,5.08,5.08,0,0,1,2.52,1.13,15.69,15.69,0,0,1,4.13,5.62,26.53,26.53,0,0,1,1.85,7.11,16.83,16.83,0,0,1-.12,6.05,20.27,20.27,0,0,1-3.5,8.46,27.41,27.41,0,0,1-2.18,2.51,1.55,1.55,0,0,0-.46,1.33C135.13,277.09,135.22,277.37,135.32,277.84Z"/><path class="cls-2" d="M126.92,296.44a1.72,1.72,0,0,0-1.32-1.38c-2.19-.51-3.85-1.94-5.66-3.12-.62-.4-1.23-.82-1.82-1.27a65.36,65.36,0,0,1-5.69-4.46,44.73,44.73,0,0,1-5.45-6.28c-1.11-1.56-2.38-3-3.34-4.66a31.86,31.86,0,0,1-3.33-6.56,30.33,30.33,0,0,1-1.58-6.81,35.3,35.3,0,0,1,.63-11.18,22.33,22.33,0,0,1,2.68-6.65c.58-.86,1.23-1.68,1.9-2.49a23.11,23.11,0,0,0,3.18-4.3,3.67,3.67,0,0,1,.84-1,4.8,4.8,0,0,0,1-1.32,7.32,7.32,0,0,1,1.31-1.77,7.39,7.39,0,0,0,1.48-2.32,8.58,8.58,0,0,1,.64-1.33c1.46-2.16,2.24-4.64,3.33-7a13.08,13.08,0,0,0,1.43-4.36,2.74,2.74,0,0,1,.25-.69,22.57,22.57,0,0,0,1.43-6.83,58,58,0,0,0-.11-7.91,30,30,0,0,0-.62-3.59,10.17,10.17,0,0,1-.28-1.44,8.32,8.32,0,0,0-1.74-4.39,7.55,7.55,0,0,1-.82-1.43c-.54-1.24-1-2.5-1.53-3.75l-.08-.17c-1.52-2.59-2.53-5.46-4.42-7.85-.26-.34-.38-.77-.61-1.14a.82.82,0,0,0-1-.37.66.66,0,0,0-.24.82,15,15,0,0,0,.75,2.07,42.07,42.07,0,0,0,2.92,5.76,11.42,11.42,0,0,1,.73,1.49c.7,1.51,1.36,3,2.08,4.53a24.42,24.42,0,0,1,2.18,8,41.75,41.75,0,0,1,0,9.93,32,32,0,0,1-.71,3.61,30.35,30.35,0,0,1-2.58,7.28,8.14,8.14,0,0,0-.31.87A20.24,20.24,0,0,1,110,228.3a15.52,15.52,0,0,0-1.33,2.22,34.86,34.86,0,0,1-3.59,4.71c-1.66,2.14-3.39,4.24-5,6.39a20.25,20.25,0,0,0-3.89,9.27,63.85,63.85,0,0,0-.26,11.23,27.32,27.32,0,0,0,.9,5.63,27.71,27.71,0,0,0,3.53,7.7A12.18,12.18,0,0,0,103,279.1a1.15,1.15,0,0,1,.28.48,15.24,15.24,0,0,0,2.75,3.92c.74.82,1.39,1.73,2.14,2.55a17.18,17.18,0,0,0,1.77,1.63c.94.79,1.9,1.56,2.86,2.32.63.49,1.29,1,1.94,1.42.21.15.47.21.65.37,1.53,1.47,3.49,2.32,5.15,3.6a11,11,0,0,0,2.22,1.35,6,6,0,0,0,2,.34A2.84,2.84,0,0,0,126.92,296.44Z"/><path class="cls-2" d="M178.73,203.07c-.21.39-.45.75-.62,1.14a2.41,2.41,0,0,0,.45,2.74,43.62,43.62,0,0,0,7.88,7.29c2.78,1.86,5.5,3.82,8.37,5.54a29.47,29.47,0,0,0,13.72,4.37,12,12,0,0,0,2.61-.14c3.19-.54,6.38-1.06,9.54-1.74a16.49,16.49,0,0,0,8.06-4.75,3.25,3.25,0,0,0,.63-1.29.6.6,0,0,0-.67-.68,6.16,6.16,0,0,0-1.38.5c-.88.45-1.75.94-2.59,1.47a19.63,19.63,0,0,1-6.22,2.39c-.91.21-1.78.6-2.69.73-2.21.33-4.44.54-6.66.84a21.63,21.63,0,0,1-7.22-.51,14.94,14.94,0,0,1-4.49-1.73c-2.27-1.28-4.46-2.67-6.66-4.07-1.35-.85-2.65-1.79-4-2.69-.2-.14-.39-.31-.58-.47-1.43-1.27-2.89-2.51-4.29-3.81a8.81,8.81,0,0,1-1.26-1.59.66.66,0,0,1,.66-1,4,4,0,0,1,.91.17,17.09,17.09,0,0,1,2.1.79,53.23,53.23,0,0,0,9.45,3.4c1.25.34,2.49.77,3.71,1.23a38,38,0,0,0,20.14,2.18c3.06-.55,6.12-1.12,9.14-1.82a33.42,33.42,0,0,0,4.21-1.49,20.66,20.66,0,0,0,2.05-.87c.25-.12.57-.42.55-.62s-.34-.51-.59-.59a4.8,4.8,0,0,0-1.62-.28,8.57,8.57,0,0,0-2,.41c-2,.58-3.84,1.44-5.92,1.57a3.07,3.07,0,0,0-.71.22,27.73,27.73,0,0,1-9.33,1.51c-2,0-4,0-6,.1a14.5,14.5,0,0,1-3.46-.59,8.87,8.87,0,0,1-1.23-.41,31.1,31.1,0,0,0-4.65-1.29,4.79,4.79,0,0,1-1.25-.39,29.15,29.15,0,0,0-4.74-1.63,15.08,15.08,0,0,0-3.55-1,1.53,1.53,0,0,1-.69-.28,33.71,33.71,0,0,0-5.88-2.31A6.69,6.69,0,0,0,178.73,203.07Z"/><path class="cls-2" d="M187.28,140.26c-.17-.24-.33-.48-.52-.72a1.47,1.47,0,0,0-1.82-.5c-.57.21-1.17.36-1.67.52-.46-.34-.24-.61-.17-.9a6,6,0,0,0-.11-3.27c-.14-.4-.25-.82-.35-1.19.27-.38.57-.22.87-.17a14.25,14.25,0,0,1,3.69,1.26,5.78,5.78,0,0,0,1.89.72.8.8,0,0,0-.09-1.3,13.17,13.17,0,0,0-7.28-3.37,5.68,5.68,0,0,1-1.57-.52,8.74,8.74,0,0,0-3.08-.64,13.59,13.59,0,0,0-3.13-.08,44.08,44.08,0,0,1-4.61.38,9,9,0,0,0-4.1,1.06c-1.16.69-2.44,1.19-3.65,1.81a2.75,2.75,0,0,0-.88.66,1.89,1.89,0,0,0,0,1.92,1.47,1.47,0,0,0,1.72.31c.91-.38,1.77-.87,2.67-1.3.48-.23.92-.66,1.64-.32a13.2,13.2,0,0,0,1.35,5.38.57.57,0,0,1-.83.2c-.9-.41-1.77-.88-2.68-1.26a16,16,0,0,0-1.93-.61.62.62,0,0,0-.76.77,2.66,2.66,0,0,0,.65,1.27,9.81,9.81,0,0,0,2.42,1.7A48.26,48.26,0,0,0,170.2,144a7.73,7.73,0,0,0,3.32.31c.93-.12,1.86-.17,2.79-.2a29.89,29.89,0,0,0,9.36-2.35A2.29,2.29,0,0,0,187.28,140.26Zm-9.46.47c-.66.12-1.38.26-2.11.36s-1.59.12-2.39.22-.84.12-1.39-.77-.91-2.13-1.92-2.87a1.58,1.58,0,0,1-.59-1.49,11.49,11.49,0,0,1,.58-2.89c.85-.13,1.65-.21,2.43-.38a20.51,20.51,0,0,1,5.19-.3,3,3,0,0,1,2.94,1.85,1.19,1.19,0,0,0,.09.15,2.11,2.11,0,0,1-.1,2.73,7.94,7.94,0,0,1-1.27,1.32A2.79,2.79,0,0,0,177.82,140.73Z"/><path class="cls-2" d="M240.18,240.54c0,.34-.14.6-.06.78a9.58,9.58,0,0,0,.73,1.28,20.39,20.39,0,0,1,2.12,4.29,8.86,8.86,0,0,1,.33,4.71,18.57,18.57,0,0,1-3.09,7.25,18.26,18.26,0,0,1-1.62,2c-1.86,2.06-3.41,4.38-5.42,6.31a43.21,43.21,0,0,0-7,9.07,37.39,37.39,0,0,0-2.51,4.5,9.18,9.18,0,0,0-.72,4.87,31.83,31.83,0,0,0,3.51,10.82,15.25,15.25,0,0,0,5.37,5.77c.84.53,1.64,1.12,2.49,1.62,1,.59,2.07,1.12,3.13,1.63a1,1,0,0,0,1.33-.33.58.58,0,0,0,.11-.15c.22-.55.93-.93.71-1.62s-1-.5-1.59-.66a6.87,6.87,0,0,1-1.7-.71,25.11,25.11,0,0,1-5.39-4.23,12.93,12.93,0,0,1-2.5-3.86,36.74,36.74,0,0,1-2.45-6.56,9.52,9.52,0,0,1,.62-6.46,50.41,50.41,0,0,1,6.95-10.43c.61-.7,1.3-1.32,1.9-2,1.41-1.64,2.78-3.31,4.16-5,.43-.52.89-1,1.28-1.57a19.34,19.34,0,0,0,3.61-6.78,15.67,15.67,0,0,0-.59-9.77,16.22,16.22,0,0,0-3-4.4C240.79,240.76,240.51,240.71,240.18,240.54Z"/><path class="cls-2" d="M224.83,179a2.54,2.54,0,0,1,0-.87c.81-2.13.58-4.34.58-6.54a4.56,4.56,0,0,0-.89-2.57c-.12-.17-.39-.25-.69-.43a3,3,0,0,0-.3.73c-.11,1-.19,2.08-.28,3.12-.08.85-.15,1.71-.22,2.57a4.51,4.51,0,0,1-1.92,3.23,10.55,10.55,0,0,1-5.64,2.23,34.85,34.85,0,0,1-6.7.14,5.38,5.38,0,0,1-3.24-1.21,3.09,3.09,0,0,0-3.26-.6c-1.12.35-2.26.66-3.34,1.12a9.47,9.47,0,0,1-4.4.52,3.14,3.14,0,0,1-2.81-3.29,4.84,4.84,0,0,1,.63-2.09c.57-1,1-2.08,1.61-3.21l-1.19-1.36c-.25.05-.46,0-.6.12-2,1.37-3.59,5-2.62,7.7a7.57,7.57,0,0,0,8.28,5.08,12.92,12.92,0,0,0,4.72-1.62,2.4,2.4,0,0,1,2.3-.16,9.46,9.46,0,0,1,1.82.93,5,5,0,0,0,2.82.81h1.3c1.43,0,2.86,0,4.29,0a15.47,15.47,0,0,0,6.76-1.82,2,2,0,0,1,2.24-.22,7,7,0,0,0,4.2.44,5.25,5.25,0,0,0,3.39-2.1c.53-.67.91-1.46,1.39-2.17a3.06,3.06,0,0,0,.38-2.82c-.42-1.28-.78-2.59-1.29-3.83a8.7,8.7,0,0,0-1.23-1.82c-.33-.44-.7-.86-1.07-1.28s-.77-.48-1-.24-.12.69.11,1,.3.39.46.58a9.53,9.53,0,0,1,1.86,5.31c-.42,2.66-1.67,4.51-4.49,4.87A3.88,3.88,0,0,1,224.83,179Z"/><path class="cls-2" d="M169.22,122.9c1.24.07,2.48.16,3.72.21a40.28,40.28,0,0,1,9,1.34c2.22.59,4.48,1,6.74,1.42a5.25,5.25,0,0,0,4.79-1.42,2,2,0,0,0,.38-2.92,6.19,6.19,0,0,0-3.46-2.35,3.76,3.76,0,0,1-.89-.23c-2.49-1.24-5.23-1.54-7.91-2l-5.49-1a3.22,3.22,0,0,0-.93-.06,14.44,14.44,0,0,1-3.88-.15,10.56,10.56,0,0,0-3,.07,17.38,17.38,0,0,0-4.73.91,22.06,22.06,0,0,1-2.16.56,9.5,9.5,0,0,0-1.82.87,1.46,1.46,0,0,0-.62,1.63,3.14,3.14,0,0,0,1.48,2.24,6.24,6.24,0,0,0,3.17,1l1.86,0,3.71-.14ZM164,120l-.07-.24a7.78,7.78,0,0,1,1-.46,24,24,0,0,1,10.13-1.1c2,.19,4.07.53,6.1.8a56.87,56.87,0,0,1,6.74,1.44A3.76,3.76,0,0,1,190.6,123a5.49,5.49,0,0,1-1.06.43c-.49.1-1,0-1.48.14a3,3,0,0,1-2.16-.31,9.87,9.87,0,0,0-3.39-1,11.24,11.24,0,0,1-2.32-.63,8.1,8.1,0,0,0-2.52-.57c-1.91-.1-3.76-.71-5.69-.56-.12,0-.25,0-.37-.06-1.11-.13-2.22-.3-3.33-.37C166.86,120.05,165.44,120,164,120Z"/><path class="cls-2" d="M247.34,140.22a3.2,3.2,0,0,0-1.58-2.1,18.16,18.16,0,0,0-.44-3,15.5,15.5,0,0,0-1.41-2.56,6,6,0,0,1,.81,0,7.94,7.94,0,0,1,3.89,1.69,2.19,2.19,0,0,0,2.16.54,3.39,3.39,0,0,0-.37-1,3.55,3.55,0,0,0-.9-.64c-1-.62-1.95-1.31-3-1.84a21.58,21.58,0,0,0-2.93-1.12c-.47-.15-1-.11-1.47-.25a17.61,17.61,0,0,0-6.27-.22c-1.8.13-3.57.4-5.34.68a5.41,5.41,0,0,0-2.39,1c-1.6,1.16-3.23,2.29-4.87,3.46-.12.53-.29,1.06-.37,1.59a1.26,1.26,0,0,0,.47,1.16.94.94,0,0,0,1,.24,5.66,5.66,0,0,0,2-1.27c.54-.51,1.05-1.05,1.62-1.53a8.77,8.77,0,0,1,1.18-.74c.23,1.21.37,2.3.66,3.35s1.07,1.81,1.15,3a2.71,2.71,0,0,1-.88,0c-1.06-.35-2.1-.77-3.15-1.14-.38-.14-.79-.24-1.3-.38v1.06a10.88,10.88,0,0,1,1.1.9,7.17,7.17,0,0,0,6.46,2.09,29.88,29.88,0,0,0,7.11-1.41,33.18,33.18,0,0,1,4.36-1C245.53,140.67,246.36,140.45,247.34,140.22Zm-12.85.25a8.85,8.85,0,0,0-1.44-1.54,2.48,2.48,0,0,1-1.12-3c.26-1.06.67-2.08,1-3.19,2.81-.34,5.53-1,8.21-.75.54.73.94,1.34,1.41,1.89a1.35,1.35,0,0,1,.33,1.52,4.64,4.64,0,0,1-.69,1.49,1.92,1.92,0,0,0-.5,2,1.58,1.58,0,0,1-.41.21,20.33,20.33,0,0,0-5.06,1.16A11,11,0,0,1,234.49,140.47Z"/><path class="cls-2" d="M229.92,123.66c2.77-.35,5.55-.66,8.32-1.06a23.73,23.73,0,0,0,2.68-.74c1.2-.32,2.41-.59,3.59-.94,1.49-.44,3-.9,4.44-1.4,1.29-.43,2.55-1,3.85-1.37a3.84,3.84,0,0,0,1.82-1.19,1.22,1.22,0,0,0,.24-1.51,3.91,3.91,0,0,0-2.74-2.27,12,12,0,0,0-3.85-.44,28.59,28.59,0,0,1-5.55.07,16.19,16.19,0,0,0-2.58.24c-.61.08-1.22.28-1.83.31a49.55,49.55,0,0,0-6.43.93,3,3,0,0,0-2,.91,2,2,0,0,1-1.35.47c-1.75,0-3,1.16-4.37,1.86-.28.13-.44.57-.59.89a2.55,2.55,0,0,1-.95,1.33,1,1,0,0,0-.61,1,1.76,1.76,0,0,0,.81,1.39A25.38,25.38,0,0,0,229.92,123.66Zm20.1-9v-.17c.73.09,1.46.17,2.19.29.1,0,.2.28.23.44a.36.36,0,0,1-.15.31,3.66,3.66,0,0,1-.67.29c-1.17.4-2.39.7-3.51,1.21a20.66,20.66,0,0,1-6.73,2.08,2.21,2.21,0,0,0-.54.16,17.37,17.37,0,0,1-3.45.74c-1.54.15-3.06.48-4.6.68s-3.33.42-5,.54a4.13,4.13,0,0,1-1.61-.32.68.68,0,0,1-.15-1.2,1.79,1.79,0,0,1,.44-.34,37.81,37.81,0,0,1,6.19-2.54c2.11-.5,4.26-.83,6.41-1.19,1.59-.26,3.19-.54,4.8-.67C245.92,114.81,248,114.77,250,114.68Z"/><path class="cls-2" d="M257.25,239.05a5.14,5.14,0,0,0-.12,2.61c.3,1.93.53,3.88.85,5.81.27,1.58.63,3.14.93,4.71a34.88,34.88,0,0,1,.91,7.12c-.07,3.93,0,7.88-1,11.73a20.87,20.87,0,0,1-4.52,8.79c-1,1.14-2.3,2.06-3.43,3.11a14.76,14.76,0,0,1-2.87,2,9.87,9.87,0,0,1-4.14,1.58,1.72,1.72,0,0,0-1,.41,2.74,2.74,0,0,1-1.48.66.73.73,0,0,0-.39,1.27,2.82,2.82,0,0,0,3,.86,22.24,22.24,0,0,0,8.61-4.95c.5-.46,1.09-.8,1.6-1.24a13.58,13.58,0,0,0,3.49-4.49c.81-1.73,1.66-3.44,2.3-5.23a26.8,26.8,0,0,0,1.22-7.05,51.05,51.05,0,0,0,.06-9c-.17-1.71-.53-3.4-.81-5.1a57.28,57.28,0,0,1-1.09-6,10.69,10.69,0,0,0-.36-1.43,16.26,16.26,0,0,1-.41-2.17C258.48,241.19,258.51,241.19,257.25,239.05Z"/><path class="cls-2" d="M145.78,338.18c0,2.11,1.31,3,2.72,2.22a1,1,0,0,0,.61-1c0-.18,0-.4,0-.55a2.46,2.46,0,0,1,.43-2.89c.61-.84,1.12-1.75,1.69-2.63a33,33,0,0,0,2.49-4.52,42.64,42.64,0,0,1,2.17-4.46,11.28,11.28,0,0,0,1-3.35,17.34,17.34,0,0,0,.35-3.29,14.91,14.91,0,0,0-1-6.13,28.91,28.91,0,0,0-1.73-3.25,8.41,8.41,0,0,0-1.38-1.72c-.84-.81-1.76-1.54-2.65-2.3a.92.92,0,0,0-1.5.44,1.55,1.55,0,0,0,.43,1.84c.71.68,1.47,1.32,2.16,2a8.8,8.8,0,0,1,1.23,1.61,13.22,13.22,0,0,1,1.55,9.76,19.43,19.43,0,0,1-2.2,5.83c-1,1.75-1.94,3.56-2.92,5.34a15.7,15.7,0,0,1-.9,1.39,16.46,16.46,0,0,0-2,3.94A14.51,14.51,0,0,0,145.78,338.18Z"/><path class="cls-2" d="M234.83,197.93c.29-.45.07-.72-.27-.94a6,6,0,0,0-3.77-.79,33.57,33.57,0,0,1-5.4.12,2.41,2.41,0,0,0-.92.12,1.8,1.8,0,0,1-1.44,0,1.6,1.6,0,0,0-.72-.14,60.14,60.14,0,0,1-7.58-.69,1.63,1.63,0,0,0-.73.08,28.37,28.37,0,0,1-4.57.88,5.8,5.8,0,0,1-1.11.11,19.71,19.71,0,0,1-7-.91,16.18,16.18,0,0,0-7.38-.42c-1,.13-2.08.31-3.13.41a29.2,29.2,0,0,1-7.2-.52,5.37,5.37,0,0,0-2.37-.22,4,4,0,0,0,2.71,2.29,18.15,18.15,0,0,0,5.92.47c2.36-.09,4.72-.31,7.08-.42,1.31-.06,2.62,0,3.92,0a9.61,9.61,0,0,1,1.82.36c.84.23,1.66.54,2.5.74a11.61,11.61,0,0,0,5.18.16c1.7-.36,3.43-.62,5.16-.83a8,8,0,0,1,2.4.08,22.05,22.05,0,0,0,5,.44c1.86-.07,3.73.05,5.6.08a9.6,9.6,0,0,0,1.86,0,18.92,18.92,0,0,1,3.9-.28A1.83,1.83,0,0,0,234.83,197.93Z"/><path class="cls-2" d="M131.83,313.84a55.61,55.61,0,0,0,1,9.6,14,14,0,0,0,.71,2.28c.53,1.24,1.15,2.45,1.72,3.68.27.6.62,1.09,1.36,1.07.58,0,1.15-.64,1.33-1.38a1.87,1.87,0,0,0-.23-1.42c-.21-.37-.44-.74-.66-1.11a16.17,16.17,0,0,1-2-6.68,33.18,33.18,0,0,1,.38-11.54,17,17,0,0,1,1.91-4.77c.66-1.14.93-2.41,1.51-3.56a1,1,0,0,0-.2-.82,2.22,2.22,0,0,1-.43-1A.74.74,0,0,0,137,298a4.16,4.16,0,0,0-.44.8c-.67,1.32-1.29,2.66-2,4A23.33,23.33,0,0,0,131.83,313.84Z"/><path class="cls-2" d="M192.31,202.92c0,.56-.06,1.16-.08,1.76s.07,1,.61,1.24a.59.59,0,0,0,.5-.08.92.92,0,0,0,.2-1.31c-.23-.39-.36-.8.09-1.18a1.57,1.57,0,0,1,.53,0c2.74,1.06,5.7,1.28,8.51,2.06.1,0,.17.16.33.31-.12.37-.29.76-.38,1.16a1.79,1.79,0,0,0,0,.89c.07.26.25.62.47.7s.55-.14.77-.31c.88-.66.81-1.57.49-2.55,1.35-.5,2.66,0,3.93-.17s2.61-.21,3.91-.33,2.47-.31,3.71-.42,2.6-.14,3.93-.21c.54.34.06.89.2,1.34a9.85,9.85,0,0,1,.25,1.44,1.22,1.22,0,0,0,.82,1.16c.85-.39.74-1.15.67-1.87s-.2-1.32-.33-2.11a2.06,2.06,0,0,1,.68-.34c1.6-.22,3.21-.39,4.81-.56.11,0,.23.06.47.14a3.87,3.87,0,0,1-.75,3.08l1.35.75c.84-.56,1.11-1,.76-1.77a5.78,5.78,0,0,1-.48-2.09c.35-.54.93-.31,1.38-.46l1.33-.47a1.68,1.68,0,0,0-1.85-1.17,30.07,30.07,0,0,1-4.65.25,9.44,9.44,0,0,0-1.47.26l-4.6.73a2.31,2.31,0,0,1-.74,0c-2.25-.54-4.43.08-6.63.34-1.29.15-2.59.27-3.89.38a6.28,6.28,0,0,1-1.3,0,42.42,42.42,0,0,0-7.21-.58,4.63,4.63,0,0,1-1.63-.32,53.65,53.65,0,0,0-5.6-1.34.57.57,0,0,0-.36.05.45.45,0,0,0-.23.24c0,.1,0,.29,0,.34C191.28,202.23,191.74,202.53,192.31,202.92Z"/><path class="cls-2" d="M170.74,211.85c.1-.39.21-.58.18-.74a28.33,28.33,0,0,0-2.13-7,4.66,4.66,0,0,1-.54-1.53A14.45,14.45,0,0,1,171.87,191l2.74-3c.57-.63.61-.92.17-1.63a9.25,9.25,0,0,0-.68-.82,2.6,2.6,0,0,0-1.73,1.08,8.67,8.67,0,0,1-.86,1,14.69,14.69,0,0,0-3.7,4.56,11.71,11.71,0,0,0-1.32,3.6,14.53,14.53,0,0,0,.66,9.2c.69,1.56,1.06,3.27,1.69,4.86A3.25,3.25,0,0,0,170.74,211.85Z"/><path class="cls-2" d="M176,127.42a16.11,16.11,0,0,1,8.79,2.78,7.35,7.35,0,0,0,2.66,1.27.56.56,0,0,0,.46-.21c.09-.13,0-.35,0-.52a.23.23,0,0,0-.11-.15c-1.52-.92-2.67-2.37-4.4-3-1.39-.52-2.71-1.21-4.09-1.74a6,6,0,0,0-1.66-.18l-2.59-.16a7.12,7.12,0,0,0-1.3-.06c-1.42.17-2.82.43-4.24.56a16.42,16.42,0,0,0-4.09,1.12,11.86,11.86,0,0,0-3.09,1.25c-.67.48-.83.77-.6,1.35.31.79.8,1.15,1.54,1a5.18,5.18,0,0,0,1.21-.45,29.06,29.06,0,0,1,6.33-2.17A51.6,51.6,0,0,1,176,127.42Z"/><path class="cls-2" d="M241.56,208.45a7.67,7.67,0,0,1,1-.14,2.09,2.09,0,0,0,1.87-1,18.76,18.76,0,0,0,2.3-4.39,21.89,21.89,0,0,0,.92-5.81,11.83,11.83,0,0,0-.51-3.6,28.86,28.86,0,0,0-3.13-6.65c-1-1.67-1.91-3.44-2.89-5.15-.46-.79-1-1.54-1.53-2.29-.06-.08-.34-.06-.49,0a.34.34,0,0,0-.13.31,4.66,4.66,0,0,0,.36,1c1.17,2.09,2.28,4.23,3.56,6.25a28.09,28.09,0,0,1,2.84,6.57,6.47,6.47,0,0,1,.18,2.37,20.13,20.13,0,0,1-4.06,11.1C241.52,207.38,241.11,207.74,241.56,208.45Z"/><path class="cls-2" d="M158.52,186v.69c0,1,.34,1.41,1,1.52s1.2-.24,1.47-1.08c.34-1,.62-2.12,1-3.17.18-.57.41-1.14.63-1.7.06-.17.21-.32.26-.49.79-2.77,2.87-4.48,5.11-6.06a10.16,10.16,0,0,1,1.22-.84,1.42,1.42,0,0,0,.73-1.55.81.81,0,0,0-.87-.78,4.84,4.84,0,0,0-1.61.36,13.05,13.05,0,0,0-5.75,5,49.5,49.5,0,0,0-3.07,7.3A2.39,2.39,0,0,0,158.52,186Z"/><path class="cls-2" d="M248.61,128.66a2.48,2.48,0,0,0-1.26-1.42c-1.61-.79-3.21-1.6-4.86-2.28a3.73,3.73,0,0,0-2.75,0,3.64,3.64,0,0,1-2.71.14,3.28,3.28,0,0,0-2,0,4.81,4.81,0,0,1-1.26.3c-2.28,0-4.15,1.14-6.1,2.05a3.85,3.85,0,0,0-1.74,1,1.15,1.15,0,0,0-.2,1.36,1.07,1.07,0,0,0,1.2.67,6.08,6.08,0,0,0,1.74-.6,35.31,35.31,0,0,1,4.57-2.06,19.21,19.21,0,0,1,10.46-.7,8.64,8.64,0,0,1,1.55.59c.87.33,1.74.66,2.62.95A2.14,2.14,0,0,0,248.61,128.66Z"/><path class="cls-2" d="M180.73,146.7c-.27.65-.07,1.11.44,1.31,1,.42,2.08.77,3.14,1.1a1.27,1.27,0,0,0,1.47-.48c.5-.61,1.19-1,1.34-1.91a2.39,2.39,0,0,0-.25-1.6.8.8,0,0,0-1.24-.34,3,3,0,0,0-.78.77,2.85,2.85,0,0,1-2.89,1.24C181.54,146.77,181.12,146.73,180.73,146.7Z"/><path class="cls-2" d="M216.57,154.36a4.4,4.4,0,0,0,.34,2.23,14.47,14.47,0,0,0,1.1,2.32,5.46,5.46,0,0,0,1.07,1.24,9.67,9.67,0,0,1,2.46,2.44.49.49,0,0,0,.86-.45c-.37-.74-.41-1.66-1.26-2.16-.29-.17-.45-.56-.65-.86-.92-1.38-1.84-2.75-2.75-4.13A1.07,1.07,0,0,0,216.57,154.36Z"/><path class="cls-2" d="M244.4,147.74c.32.3.54.69.81.73a4.57,4.57,0,0,0,2.37-.2c1.2-.47,2.44-.87,3.66-1.31a2.15,2.15,0,0,0,.68-.27,1,1,0,0,0,.28-.59c0-.09-.25-.29-.4-.3a6.57,6.57,0,0,0-1.66.09c-1.68.43-3.34.92-5,1.4A5,5,0,0,0,244.4,147.74Z"/><path class="cls-2" d="M226.58,149.52c.13-.5.3-.77.23-.92a7.44,7.44,0,0,0-.94-1.56c-.93-1-1.92-2-2.92-3a.91.91,0,0,0-.67-.18c-.35.06-.45.37-.46.7a1.55,1.55,0,0,0,.46,1.34C223.62,147,225,148.16,226.58,149.52Z"/><path class="cls-2" d="M189,166.89a5.15,5.15,0,0,0-.43-1.11,1.28,1.28,0,0,0-1.25-.62,4.89,4.89,0,0,0-2.45.75.92.92,0,0,0-.48.92.82.82,0,0,0,.73.74A4.6,4.6,0,0,0,189,166.89Z"/><path class="cls-2" d="M155.61,141.64a3.56,3.56,0,0,0-1.1.57,7.89,7.89,0,0,0-1.14,1.66,1.15,1.15,0,0,0,.33,1.62,1.17,1.17,0,0,0,1.48-.4c.48-.53.93-1.09,1.46-1.71A3.84,3.84,0,0,0,155.61,141.64Z"/><path class="cls-2" d="M156.1,138.33a1.39,1.39,0,0,0-.68-1.39,5.71,5.71,0,0,0-3.43-.86c0,.28,0,.56,0,.83s.08.46.13.74l3.6.84C155.86,138.51,156,138.39,156.1,138.33Z"/><path class="cls-2" d="M153.32,141.23c-.47-.58-.81-1-1.16-1.42a.82.82,0,0,0-1.12-.29,3.82,3.82,0,0,0-1.7,1.35.76.76,0,0,0,.78.83,17.66,17.66,0,0,0,2.52,0C152.84,141.69,153,141.45,153.32,141.23Z"/><path class="cls-2" d="M212.11,205.72a4.18,4.18,0,0,0-.54,2.78,1.43,1.43,0,0,0,.74,1.24C213.45,208.29,212.88,207,212.11,205.72Z"/></svg>