<svg id="Layer_1" data-name="Layer 1" xmlns="http://www.w3.org/2000/svg" viewBox="0 0 330 370"><defs><style>.cls-1{fill:#0d000d;}.cls-2{fill:#ffa47f;}</style></defs><path class="cls-1" d="M326.44,194.7c0,.64,0,1.27,0,1.9-.48,42.7-14.67,86-44.12,118-10.19,11.08-22.89,21.08-38.08,23.5-14.7,2.35-29.41-2.69-43.86-6.2a219.79,219.79,0,0,0-92.86-2.27c-13.45,2.57-26.77,6.42-40.48,6.55S38.66,332,30.61,321.33C-11,266.19-2.66,187,42.28,136.57c13.58-15.26,30.47-29.2,40-46,5.77-10.19,8.19-29.9,18-37,10.8-7.88,40.14-9.62,53.77-12.77,40.75-9.43,120.23-22.59,145,21.11C318.45,96,326.59,156.33,326.44,194.7Z"/><path class="cls-2" d="M271.26,244.91c.24.06.42.11.61.14a1.05,1.05,0,0,1,.9.93,46.8,46.8,0,0,0,2.94,8.38,21,21,0,0,1,1.48,5.88c.17,1.56.4,3.11.65,4.65a21.12,21.12,0,0,1,.07,5.94c-.22,2-.52,3.94-.78,5.91a29.61,29.61,0,0,1-1.22,5.33,62.69,62.69,0,0,1-6,13.38c-.54.88-1.1,1.75-1.69,2.69a1.3,1.3,0,0,1-1.49-.35,1.93,1.93,0,0,1-.29-1.78,1,1,0,0,1,.49-.55,2.61,2.61,0,0,0,1-1.13c.89-1.52,1.8-3,2.6-4.61a41.33,41.33,0,0,0,1.66-3.87,51,51,0,0,0,2.88-9.39,32.84,32.84,0,0,0,.7-4.16,30.72,30.72,0,0,0-.07-7.17c-.31-1.74-.54-3.51-.85-5.25a25.73,25.73,0,0,0-1.83-5.8c-.59-1.33-1-2.72-1.52-4.09a5.24,5.24,0,0,0-.73-1.71c-.18.47-.36.81-.46,1.18-.42,1.61-.79,3.24-1.22,4.86-.68,2.51-1.31,5.05-2.11,7.53a29.12,29.12,0,0,1-3.65,7.73,18.47,18.47,0,0,0-1.24,2.17,74.32,74.32,0,0,0-3.46,7.33,53.13,53.13,0,0,0-2.68,8.65,14.18,14.18,0,0,0-.35,3.89c.21,2.5.37,5,.74,7.48a30.45,30.45,0,0,0,1.24,4.68c.65,2,1.44,3.92,2.09,5.9a2,2,0,0,0,1.41,1.48c.09,0,.15.12.27.24,0,.51,0,1.08,0,1.65s-.2.79-1.05,1.07a3.22,3.22,0,0,1-1.62-1.93,25.9,25.9,0,0,1-1.27-3.69,10.16,10.16,0,0,0-.71-2.05c-.93-2-1.23-4.2-2-6.22a1.64,1.64,0,0,1-.17-.6c.08-2.1-.71-4.09-.69-6.19,0-1.82-.33-3.66.07-5.46a28.16,28.16,0,0,1,1.7-6.16,18.09,18.09,0,0,0,1.06-2.94,54.17,54.17,0,0,1,2.71-6.47,23.22,23.22,0,0,1,2.21-3.92,26.59,26.59,0,0,0,1.74-3.3,36,36,0,0,0,2.05-5.22c1.14-3.79,2.07-7.65,3-11.5a27.7,27.7,0,0,0,.65-4.8c.19-3.08.48-6.15.6-9.23.06-1.56-.15-3.12-.24-4.69,0-.1-.06-.2-.06-.3,0-2.31-.51-4.56-.73-6.84-.2-2-.42-3.94-.53-5.92-.2-3.81-.71-7.6-.46-11.42.05-.68-.07-1.36,0-2,.06-1.15.21-2.29.29-3.43.16-2.29.31-4.59.45-6.88a4.18,4.18,0,0,0-.14-.76c-.23.23-.41.33-.47.48-.69,1.58-1.36,3.17-2,4.74-.76,1.77-1.56,3.52-2.31,5.3-.45,1.05-.82,2.13-1.26,3.19s-1,2.06-1.41,3.12c-.52,1.31-1,2.62-1.43,4a43.77,43.77,0,0,0-1.22,5.18,56.31,56.31,0,0,0-.57,6.08,29,29,0,0,0,.65,8.41,4.87,4.87,0,0,1,.15.93,47.58,47.58,0,0,0,1.1,6.16,30.14,30.14,0,0,0,1.46,4.94,22.92,22.92,0,0,1,1.41,7.51,6.29,6.29,0,0,1-.18,1.14,9.44,9.44,0,0,0-.95-.24c-.3,0-.62,0-.91-.06a5.82,5.82,0,0,1-.94-.36l1-1.23c-.17-1-.31-2.08-.57-3.14-.49-2-1-3.94-1.62-5.87a37.19,37.19,0,0,1-1.08-6,22.9,22.9,0,0,0-.54-2.59,20.91,20.91,0,0,1-.7-4.16,64,64,0,0,1,0-9.39c.08-.88.33-1.74.45-2.62a46.34,46.34,0,0,1,1.44-6.08,31.73,31.73,0,0,1,1.17-3.07c.68-1.69,1.35-3.38,2.06-5.06.93-2.2,1.9-4.39,2.84-6.59.8-1.87,1.59-3.74,2.34-5.62.3-.78.5-1.59.75-2.39,1-3.24,2-6.46,2.95-9.72.51-1.8,1-3.61,1.4-5.45a52.77,52.77,0,0,0,1-7.28,19.13,19.13,0,0,0-.52-6.07c-.23-1-.52-1.91-.7-2.88-.44-2.27-1.65-4.25-2.3-6.45a19.26,19.26,0,0,1-1.05-3.25c-.12-1-.33-2.06-.38-3.1-.1-1.67-.1-3.34-.14-5a7.26,7.26,0,0,0,0-.94c-.32-2.12-.37-4.25-.51-6.38,0-.62-.15-1.24-.24-1.86a3.26,3.26,0,0,1-.11-.61,49.88,49.88,0,0,0-.36-5.46,19.51,19.51,0,0,0-.36-2.94c-.42-2.15-.77-4.33-1.36-6.43-1-3.51-1.76-7.12-3.49-10.34-.87-1.6-1.43-3.34-2.39-4.89a5.58,5.58,0,0,1-.35-.69,87.29,87.29,0,0,0-4.43-8.4,26.35,26.35,0,0,0-2.16-3.4,31.68,31.68,0,0,1-2.37-3.65,25.09,25.09,0,0,0-3-4.17c-.42-.45-.72-1-1.13-1.48q-2.77-3.23-5.6-6.43a11.92,11.92,0,0,0-.9-.84,46.93,46.93,0,0,0-5.4-4.35c-1.05-.74-2-1.58-3.15-2.22-1.69-1-3.38-2-5.08-2.93-.53-.3-1.11-.53-1.67-.78-2.31-1-4.7-1.75-7.07-2.58a40.85,40.85,0,0,0-6.21-1.72,6.3,6.3,0,0,1-.75-.18,55.54,55.54,0,0,0-8-1.6,40.8,40.8,0,0,0-4.12-.43,10.75,10.75,0,0,0-1.37.13,39.77,39.77,0,0,0-4.88.52,14.05,14.05,0,0,1-4.88-.34,22.29,22.29,0,0,1-3.06-1,14,14,0,0,0-3.86-.8,10.65,10.65,0,0,1-3-.59,11.29,11.29,0,0,0-3.78-.4l-6.45.11-4,0a4,4,0,0,0-.92.08,37.79,37.79,0,0,1-5.3.87,9,9,0,0,0-1.35.29c-1.86.57-3.71,1.18-5.58,1.71a26.6,26.6,0,0,0-3.14,1.24c-2.83,1.24-5.68,2.41-8.49,3.66a36.29,36.29,0,0,0-3.57,1.82c-3,1.73-6,3.39-8.92,5.24a88.65,88.65,0,0,0-7.23,5.54c-2.88,2.28-5.53,4.82-8.27,7.26-1.27,1.14-2.41,2.41-3.58,3.65-2.16,2.31-4.37,4.56-6.53,6.87a80.9,80.9,0,0,0-6.66,8q-1.28,1.77-2.66,3.45a58.52,58.52,0,0,0-4.75,7.3c-1.22,2.06-2.38,4.15-3.71,6.14a16,16,0,0,0-1,1.91c-1.1,2.24-2.2,4.48-3.28,6.73-.4.84-.72,1.73-1.13,2.57a25.32,25.32,0,0,1-2.94,4.76c-1.6,2-3.16,4-4.69,6-1.16,1.53-2.3,3.07-3.37,4.66a15.89,15.89,0,0,0-2.17,5.32c0,.09,0,.19.08.38a2.45,2.45,0,0,0,.49-.33,26.25,26.25,0,0,1,5-4.11,13.55,13.55,0,0,0,1.48-1.36c1.16-1,2.3-2.06,3.37-3.19a18.57,18.57,0,0,0,2.83-4.24c.75-1.42,1.48-2.85,2.25-4.27a2.47,2.47,0,0,1,.62-.67.46.46,0,0,1,.41,0,.52.52,0,0,1,.18.4,1.53,1.53,0,0,1-.12.6c-.46,1-.93,2.1-1.41,3.13-.31.66-.69,1.29-1,2a15.1,15.1,0,0,1-3.31,4.85c-1.14,1.12-2.31,2.22-3.47,3.32a4.57,4.57,0,0,0-.45.43A29,29,0,0,1,65,147.32c-1.5,1.19-3,2.36-4.47,3.58-.83.69-1.59,1.47-2.38,2.21-1.18,1.09-2.44,2.1-3.51,3.29a38,38,0,0,0-6.46,9.1,2.55,2.55,0,0,1-.13.29c-2.07,3.54-3.75,7.31-5.62,11A74.08,74.08,0,0,0,37.75,187c-.31.94-.64,1.88-.9,2.84a84.71,84.71,0,0,0-2.21,8.31c-.2,1.18-.32,2.38-.47,3.57,0,.31,0,.63-.05.93a34.11,34.11,0,0,0,.44,9.83,51.78,51.78,0,0,0,3.62,12.28,31.37,31.37,0,0,0,3.57,6.2c1.32,1.86,2.73,3.65,4.18,5.4.4.48.82.94,1.23,1.4.89,1,1.77,2,2.69,3,.56.61,1.19,1.14,1.76,1.73,1.63,1.67,3.24,3.35,4.86,5,1.44,1.48,2.86,3,4.33,4.44A32.27,32.27,0,0,1,66.13,259c.36.63.75,1.24,1.14,1.89l1-.18c.47.36.45.87.53,1.31a8.93,8.93,0,0,0,1.84,4.41c.07.08.11.18.17.26.46.54.31,1.33.89,1.87a5.3,5.3,0,0,1,.91,1.79c.27.68.5,1.37.72,2.07.56,1.74,1.15,3.46,1.64,5.22a15.08,15.08,0,0,1,.41,5.44,47.58,47.58,0,0,1-.59,6.08.75.75,0,0,0,.58,1,14.81,14.81,0,0,0,5.29.62c1-.09,1.93-.29,2.89-.42l4-.45c.41-.05.82-.07,1.23-.13a1.33,1.33,0,0,0,1.16-.88,59.82,59.82,0,0,0,2.85-7.6,28.86,28.86,0,0,0,.37-12.13c-.34-1.9-.75-3.79-1.19-5.67a10.74,10.74,0,0,0-.79-2.36,39,39,0,0,0-4.58-7.76c-1.38-1.69-2.66-3.45-4-5.13a29,29,0,0,0-2.09-2.06l-1.86-1.86c-.08-.07-.13-.16-.21-.23a40.36,40.36,0,0,1-5.13-5.56A11,11,0,0,1,71.37,236c-.16-.36-.29-.39-1-.81-.06.08-.17.16-.17.23,0,1.15,0,2.3,0,3.45a36.24,36.24,0,0,0,1.58,7.65,37.72,37.72,0,0,0,2.92,7.4c.35.69.73,1.38,1.14,2,1.32,2.06,2.62,4.12,4,6.13.89,1.28,1.9,2.47,2.86,3.69.6.78,1.21,1.55,1.84,2.31a12.74,12.74,0,0,1,1.85,3.06,28.2,28.2,0,0,1,2,5.74,10.17,10.17,0,0,1,.15,3.73,1.6,1.6,0,0,1-2.45.89,1,1,0,0,1-.31-1.39,3.67,3.67,0,0,0,.26-2.58A18.13,18.13,0,0,0,84,272a49.48,49.48,0,0,0-5-6.94A68.74,68.74,0,0,1,73,256a34.54,34.54,0,0,1-3.08-7.31c-.58-2.17-1.15-4.34-1.58-6.53a18.87,18.87,0,0,1-.17-6.23c.14-1,.21-2.08.26-3.12a1.51,1.51,0,0,0-.3-.85c-.32-.47-.74-.87-1-1.34a13.51,13.51,0,0,1-1.14-2,28.8,28.8,0,0,0-1.6-3.37c-1.08-1.89-2-3.85-3-5.8a6,6,0,0,1-.35-1,40.29,40.29,0,0,1-1.49-6.7,4.91,4.91,0,0,0-.17-.76,20.11,20.11,0,0,1-.65-6.19c.15-3.45.78-6.83,1.14-10.25a13.5,13.5,0,0,1,1.09-3.57c.75-1.82,1.47-3.65,2.23-5.46a39.66,39.66,0,0,1,1.87-3.6c.44-.82.92-1.62,1.39-2.43a1.4,1.4,0,0,1,.32-.28.49.49,0,0,1,.43.7,9,9,0,0,1-.62,1.76A21.9,21.9,0,0,0,65,185.72a21.77,21.77,0,0,1-1.3,3.17,24.15,24.15,0,0,0-2.12,7.49c-.29,2.39-.65,4.76-1,7.15a12.41,12.41,0,0,0,0,3.75c.36,2.11.78,4.21,1.17,6.31,0,.15.08.3.11.46a22.72,22.72,0,0,0,2.46,6.72,20.43,20.43,0,0,1,.92,2.15,43,43,0,0,0,3.47,6.62,3.62,3.62,0,0,0,.59.6,6.74,6.74,0,0,0,.41-.76,6.58,6.58,0,0,1,.28-.89c1-1.85,1.12-4,1.92-5.9.08-.19.07-.42.15-.61.85-2.18,1.72-4.34,2.55-6.53a3.29,3.29,0,0,1,1.55-1.82c.46.05.48.38.46.69a1.87,1.87,0,0,1-.22.58,77.48,77.48,0,0,0-2.94,7.4,58.6,58.6,0,0,0-1.94,6.76,11.11,11.11,0,0,1-.61,1.76,1.93,1.93,0,0,0,.3,2.17,106.24,106.24,0,0,0,7.24,8.32c2.39,2.35,4.8,4.7,7.09,7.16A32.64,32.64,0,0,1,91.13,256c.38.74.86,1.42,1.27,2.14a20.46,20.46,0,0,1,2.15,6,49.39,49.39,0,0,1,1.19,8.21,28.43,28.43,0,0,1-2.08,12.56c-.5,1.14-.89,2.34-1.31,3.51a6.65,6.65,0,0,0-.19.93,3.75,3.75,0,0,0,.47.16,17,17,0,0,1,9,4,11.25,11.25,0,0,1,3.15,4.93,2.6,2.6,0,0,1,.14.92,1.51,1.51,0,0,1-1.19,1.45,1.23,1.23,0,0,1-1.42-.91,2.54,2.54,0,0,1-.13-.45,7.67,7.67,0,0,0-3-4.39,13,13,0,0,0-6.78-2.7,17.36,17.36,0,0,0-2.6,0c-2.34.17-4.68.41-7,.79a22,22,0,0,1-5.68,0,8.05,8.05,0,0,1-2.85-.51,2.1,2.1,0,0,0-.93,0c-.83-.77-1.64-1.41-2.33-2.16-.87-1-1.64-2-2.45-3a1.36,1.36,0,0,1-.22-.41c-.6-2.45-1.15-4.9.17-7.3.15-.27.21-.59.37-.85s.32-.16.59-.29a8.76,8.76,0,0,1,.07,2.59,7.49,7.49,0,0,0,.28,2.94,3,3,0,0,0,.33.87c.67,1,1.37,1.95,2.08,2.9a2.1,2.1,0,0,0,.58.49.53.53,0,0,0,.74-.34,20.4,20.4,0,0,0,.32-3.56c-.07-1-.1-2.07-.16-3.11a7.1,7.1,0,0,0-.47-2.44,22.09,22.09,0,0,1-.72-2.4c-.41-1.45-1-2.86-1.41-4.29a19.92,19.92,0,0,0-1.57-3.33c-.41-.78-.84-1.56-1.31-2.3-.64-1-1.07-2.1-1.82-3.05a26.91,26.91,0,0,1-1.65-3,39.1,39.1,0,0,0-3.25-4.75c-2.06-2.53-4.48-4.7-6.76-7q-1.56-1.6-3-3.32a9.51,9.51,0,0,0-1.59-1.32.61.61,0,0,0-.58.69c-.14,2.89-1.28,5.47-2.38,8.06-.67,1.58-1.5,3.09-2.16,4.67a59.28,59.28,0,0,0-2.94,8.4,46.9,46.9,0,0,0-1.19,5.35,76.29,76.29,0,0,0-.71,8.11,17.43,17.43,0,0,0,.65,5.12A35.76,35.76,0,0,0,46,295.29a26.63,26.63,0,0,0,4.94,5.33c1.44,1.18,2.86,2.37,4.3,3.54.28.22.58.41.87.61.75-.38.86-1.36,1.64-1.64a4.17,4.17,0,0,1-.35,3.71c-.62-.16-1.21-.27-1.77-.45a3.17,3.17,0,0,1-.93-.52c-1.78-1.39-3.57-2.77-5.22-4.34a10.06,10.06,0,0,1-2-2.32A4.91,4.91,0,0,0,46,297.83a5.12,5.12,0,0,1-1.36-1.46c-.6-1-1.21-1.93-1.87-2.86a36.06,36.06,0,0,1-2.51-5,1.79,1.79,0,0,1-.16-.44,39.57,39.57,0,0,1-1.17-7.41c0-.73,0-1.47,0-2.19.09-1.62.2-3.24.31-4.85,0-.42,0-.84.12-1.25a48.39,48.39,0,0,1,1.89-8.06c.86-2.4,1.69-4.81,2.64-7.17a19.77,19.77,0,0,1,1.59-3.19,15.27,15.27,0,0,0,1.2-3c.33-.93.61-1.88.94-2.81a15.51,15.51,0,0,0,.58-4.18c-.43-1.13-.38-2.42-1.41-3.36a27.48,27.48,0,0,1-2.65-3c-1.13-1.41-2.25-2.83-3.28-4.31A25.88,25.88,0,0,1,38,227.68a13.59,13.59,0,0,0-.89-2,7.77,7.77,0,0,1-.51-1.14c-.53-1.35-1.08-2.7-1.56-4.07a20.72,20.72,0,0,1-.69-2.57c-.55-2.6-1-5.21-1.59-7.81a12,12,0,0,1-.21-3.11,1.81,1.81,0,0,0,0-.46,13.5,13.5,0,0,1,.08-4.21,68.24,68.24,0,0,1,1-6.82,8.32,8.32,0,0,1,.88-2.49,8.45,8.45,0,0,0,.88-3,12.54,12.54,0,0,1,.71-2.55c.52-1.3.89-2.66,1.3-4a12.56,12.56,0,0,1,2.06-4.16,6.15,6.15,0,0,0,.55-.93c.66-1.29,1.32-2.59,2-3.89a7.5,7.5,0,0,0,.61-1.43,30.68,30.68,0,0,1,1.62-4,.87.87,0,0,1,.14-.27c1.46-1.66,2-3.88,3.25-5.66.47-.66.66-1.52,1.08-2.23s.94-1.22,1.4-1.84c.72-.95,1.41-1.91,2.13-2.85a1.88,1.88,0,0,1,.57-.52c2.46-1.39,4.27-3.53,6.14-5.59.24-.26.42-.59.69-.83a2.8,2.8,0,0,0,.75-1.33c.6-1.94,1.16-3.9,1.89-5.78A17.31,17.31,0,0,1,64,139.07c.73-1.12,1.52-2.21,2.32-3.28.55-.75,1.18-1.44,1.76-2.16s1.21-1.55,1.81-2.32a6.4,6.4,0,0,1,.64-.88c1.21-1.1,1.82-2.64,2.73-4a2.94,2.94,0,0,0,.62-1.58.72.72,0,0,1,.11-.44c1-1.25,1.34-2.91,2.44-4.11a1.56,1.56,0,0,0,.39-.83,10.39,10.39,0,0,1,1.66-3.84,24.13,24.13,0,0,1,1.36-2.09,49.88,49.88,0,0,0,3-4.92c.75-1.46,1.69-2.83,2.53-4.24A7.69,7.69,0,0,0,86,103.2a23.48,23.48,0,0,1,2-3.3,1.58,1.58,0,0,1,.54-.55c1.26-.72,1.9-2,2.75-3.11,1.07-1.38,2.08-2.82,3.29-4.11,1.74-1.83,3.33-3.81,5.07-5.65a26.16,26.16,0,0,1,3.73-3.71,5.68,5.68,0,0,0,1-1.15,17.72,17.72,0,0,1,3-3.08A18,18,0,0,0,109.23,77c1.3-1.33,2.85-2.38,4-3.82a23.36,23.36,0,0,0,3.09-2.53c1.44-1.08,2.77-2.31,4.15-3.48a10.13,10.13,0,0,1,1-.76c1.72-1.13,3.45-2.25,5.2-3.34.65-.41,1.36-.72,2-1.12a31.69,31.69,0,0,0,3.9-2.17,4.66,4.66,0,0,1,1.53-.71,22.6,22.6,0,0,0,3.34-1.57c1.24-.63,2.53-1.13,3.74-1.8,1.41-.78,3-1.08,4.39-1.81a24.93,24.93,0,0,1,4.9-1.82,69.36,69.36,0,0,1,8.68-2,35.42,35.42,0,0,1,5-.29c1.23,0,2.45,0,3.68-.08a2.08,2.08,0,0,0,.75-.13,8.73,8.73,0,0,1,4.07-.55,23,23,0,0,1,6.9,1.27,11.17,11.17,0,0,0,2.85.62,6.39,6.39,0,0,1,1.21.21c1.44.34,2.87.74,4.33,1a5.07,5.07,0,0,0,1.82,0,25.11,25.11,0,0,1,4.73-.46c1.23,0,2.46-.1,3.68,0,1.58.1,3.15.31,4.72.5.41,0,.8.21,1.2.29.85.18,1.71.31,2.55.51,1.2.28,2.38.62,3.57.93.49.13,1,.28,1.48.38a52.91,52.91,0,0,1,10.53,3.36c.61.27,1.26.45,1.85.74,1,.5,2,1,3,1.59,1.65.93,3.32,1.87,4.94,2.86.91.57,1.74,1.28,2.63,1.88a38.35,38.35,0,0,1,7.6,6.79c1.35,1.57,2.67,3.17,4,4.73a46.28,46.28,0,0,1,3.74,5.36c1.15,1.79,2.27,3.6,3.45,5.36,1.37,2,2.59,4.14,3.79,6.27.59,1,1.08,2.12,1.58,3.22.89,2,1.89,3.93,2.84,5.9.31.65.64,1.31.92,2a65.78,65.78,0,0,1,3.5,10.51c.81,3.62,1.4,7.28,1.95,11a3.71,3.71,0,0,1,0,.47,59.37,59.37,0,0,0,.65,8.43,74.35,74.35,0,0,1,.32,9.55,15.11,15.11,0,0,0,1,5.34c.9,2.44,1.82,4.88,2.7,7.33a25.73,25.73,0,0,1,1.3,12,59.59,59.59,0,0,1-2.45,10.81c-.45,1.44-.87,2.9-1.26,4.36a3.13,3.13,0,0,0,0,1.22,20.66,20.66,0,0,1,.38,5.14c-.29,3.49-.57,7-.9,10.46a40.48,40.48,0,0,0-.05,6.42c.08,1.2.16,2.4.23,3.6.18,3.23.35,6.47.53,9.7a15.42,15.42,0,0,0,.34,2.95,15.18,15.18,0,0,1,.32,2.33,71.51,71.51,0,0,1,.32,11.89c-.13,1.92-.22,3.86-.32,5.79C271.24,244,271.26,244.43,271.26,244.91Z"/><path class="cls-2" d="M96.74,255.35l-1-.32a.9.9,0,0,1-.63-1.1c0-.1,0-.21,0-.31a16.72,16.72,0,0,0-.22-5.28,25.34,25.34,0,0,0-.64-4.16c-.26-1-.58-1.9-.88-2.84a1.38,1.38,0,0,0-.21-.42,55.13,55.13,0,0,1-2.87-4.79c-1.14-2-2.35-4-3.6-6a33.2,33.2,0,0,1-2.92-6,15.19,15.19,0,0,1-.61-2.88c-.13-.82-.15-1.67-.3-2.49a21.21,21.21,0,0,1,0-5.16,5.08,5.08,0,0,1,.2-.74,7.06,7.06,0,0,0,.34-1.52,16.31,16.31,0,0,1,1.32-5.12,33.64,33.64,0,0,1,2.08-4.53,36.24,36.24,0,0,0,2.18-5,13.71,13.71,0,0,0,.31-7.72,2.35,2.35,0,0,0-.23-.57,24.46,24.46,0,0,1-2.08-7.34,13.92,13.92,0,0,1,.39-5.59,73.42,73.42,0,0,1,2.52-7.22,1.44,1.44,0,0,0,.05-.31c-.18-.36-.52-.26-.8-.24-.92.06-1.83.16-2.75.24a4,4,0,0,1-.77,0,.54.54,0,0,1-.41-.71A2.36,2.36,0,0,1,87,165.56a1.55,1.55,0,0,1,.31,0c1.47-.1,3-.24,4.43-.28a19.93,19.93,0,0,0,3.44-.77.77.77,0,0,0,.54-.7,15.54,15.54,0,0,1,2.9-6.14,18.09,18.09,0,0,1,2.59-2.66c1.15-1,2.38-2,3.58-3,.15-.13.29-.28.46-.44-.23-.69-.83-1.06-1.22-1.6a2.07,2.07,0,0,1,.11-3,7,7,0,0,1,.57-.52,11.79,11.79,0,0,1,4.37-2.13l3-1.06a6.21,6.21,0,0,1,1-.29,23.9,23.9,0,0,0,4.33-1,9.27,9.27,0,0,1,1-.29,31.23,31.23,0,0,1,7.46-.86,4.69,4.69,0,0,0,.92-.05,15.66,15.66,0,0,1,5.79.18,6.83,6.83,0,0,1,1.93.48,3.92,3.92,0,0,0,1,.28c1.85.37,3.75.45,5.51,1.28a10.91,10.91,0,0,0,2.24.52c1.59.36,3.19.76,4.79,1.09a11.47,11.47,0,0,1,4,1.64c.46.3,1,.55,1.4.79-.16.71-.27,1.31-.45,1.89a5.14,5.14,0,0,1-.51,1.12c-.27.44-.59.84-.89,1.25a1.61,1.61,0,0,0,.18.48,16.55,16.55,0,0,1,4.65,7.77,4.6,4.6,0,0,0,.31.72c0,.08.15.12.29.24a11.26,11.26,0,0,0,1.19-.9,10.16,10.16,0,0,1,4.21-2.14c1-.32,2.08-.53,3.11-.83a11.44,11.44,0,0,1,3-.23,21.11,21.11,0,0,1,6.52.92,13.18,13.18,0,0,1,4.08,1.95,1.79,1.79,0,0,0,.43-.34.45.45,0,0,0,0-.41c-.25-.17-.54-.27-.81-.42a2.68,2.68,0,0,1-.26-4.45,21.59,21.59,0,0,1,8.89-3.7c.6-.12,1.2-.26,1.8-.34a21.6,21.6,0,0,1,2.75-.3c2.51,0,5-.31,7.51-.41,1.68-.07,3.37,0,5.06,0a2.83,2.83,0,0,0,.77,0,7.69,7.69,0,0,1,3.34.08c2.27.34,4.57.55,6.83,1,.79.17,1.62.21,2.42.35a17,17,0,0,1,4,1.67l2.24,1a17.26,17.26,0,0,1,4.13,2.36,5.55,5.55,0,0,1,1.32,1.5,32,32,0,0,1,1.54,3.24c.58,1.33,1.1,2.69,1.63,4a5,5,0,0,0,1.89.31,42.7,42.7,0,0,1,6.86.64c.75.14,1.53.14,2.29.23a4.69,4.69,0,0,1,1.18.26.86.86,0,0,1,.22,1.32,2.3,2.3,0,0,1-2.23.73,56,56,0,0,0-8.05-1.18,2,2,0,0,0-1.37.18,3.23,3.23,0,0,0-.06.61,27.39,27.39,0,0,1-.75,8.07,13.56,13.56,0,0,1-1,2.77,26.79,26.79,0,0,1-4.7,7.66c-1,1.06-1.88,2.21-2.83,3.3a14.16,14.16,0,0,1-1.13,1.06c-.46.41-1,.78-1.39,1.22a9.3,9.3,0,0,1-3.91,2.4,27.23,27.23,0,0,1-11.24,1.12c-.91-.09-1.84-.08-2.75-.13s-1.63-.11-2.44-.19c-.26,0-.5-.13-.76-.15a33.12,33.12,0,0,1-10.22-3.23,18.8,18.8,0,0,1-4.92-3.46,12.87,12.87,0,0,1-3.34-5.16c-.62-1.66-1.5-3.21-2.15-4.85-.73-1.84-1.34-3.72-2-5.59a1,1,0,0,1-.08-.3,49.88,49.88,0,0,1-.38-5.3,31.35,31.35,0,0,1,.7-4.48c.05-.3.14-.59.23-1-.32-.05-.56-.09-.8-.11a3.84,3.84,0,0,1-1.86-.59,8.08,8.08,0,0,0-2-.81,22.15,22.15,0,0,0-5.29-.87,18.68,18.68,0,0,0-6.41.45,6.17,6.17,0,0,0-3.88,2.6,8.82,8.82,0,0,1-1,1.1c0,.26,0,.62,0,1a14.84,14.84,0,0,1-.34,3.58,13.65,13.65,0,0,0-.25,1.7A44.91,44.91,0,0,1,154,179.19c-.49,1.26-1,2.49-1.64,3.7a6,6,0,0,1-1.33,1.7c-1,.93-2.14,1.77-3.24,2.62a34.82,34.82,0,0,1-6.72,3.73l-1,.47a8.68,8.68,0,0,1-1.1.55,41.18,41.18,0,0,1-7,1.82,41.81,41.81,0,0,1-4.74.35,30.34,30.34,0,0,1-6.85-.82l-2.4-.51c-1.76-.37-3.31-1.35-5-1.85-1.18-.34-2.34-.75-3.49-1.2a11.63,11.63,0,0,1-4.38-2.5,3.77,3.77,0,0,0-.48-.4,1.06,1.06,0,0,0-1.14-.2c-.53.2-1.07.38-1.6.56s-1.18.37-1.77.51c-.25.06-.57,0-.61-.29a.58.58,0,0,1,.29-.47c1-.56,2-1.09,2.94-1.63.09,0,.14-.14.26-.26a5.13,5.13,0,0,0-1.2-2.1,33.24,33.24,0,0,1-4.93-9.16c-.41-1.06-.87-2.1-1.22-3.18a7.65,7.65,0,0,1-.5-2.74c0-1.19-.42-1.53-1.51-1.23-.79.22-1.57.49-2.46.77-.41,1.24-.86,2.51-1.24,3.8a35.81,35.81,0,0,0-1.55,7.17,5.11,5.11,0,0,0,.13,1.7,42.13,42.13,0,0,0,1.33,4.5,38.13,38.13,0,0,1,1.87,6.61,4.13,4.13,0,0,1,0,1.85c-.17.65-.23,1.33-.35,2a23.19,23.19,0,0,1-2.28,5.8c-.47,1-1.08,1.9-1.56,2.88-1.25,2.57-2.6,5.1-3,8-.11.72-.33,1.42-.51,2.13a15.08,15.08,0,0,0,.07,6.38,32.19,32.19,0,0,0,2.8,7.61,4.8,4.8,0,0,0,.7,1,12.39,12.39,0,0,1,1.67,2.62q1.29,2.49,2.81,4.84a32.87,32.87,0,0,1,5,14.17A13.16,13.16,0,0,1,96.74,255.35ZM207.79,151l-.24,0,.27,0c.1.5.5.62.9.73a14.46,14.46,0,0,1,1.63.44,32.93,32.93,0,0,0,3.84,1.51c1.66.45,3.23,1.24,4.85,1.85a18.73,18.73,0,0,1,4.27,2.46,3.16,3.16,0,0,1,.72.78.58.58,0,0,1-.25.91c-.67.15-1,.67-1.42,1.08a4.47,4.47,0,0,1-1.43.87c-3.14,1.14-6.42,1.13-9.69,1.2-.1,0-.2,0-.31,0a18.4,18.4,0,0,0-4.13.08,10.78,10.78,0,0,1-1.38.15c-1.47,0-2.94-.21-4.42-.2a26.79,26.79,0,0,1-4.26-.52c-2.18-.35-4.35-.7-6.51-1.13-1.7-.33-3.38-.83-5.08-1.17a13.18,13.18,0,0,0-3-.63,7.17,7.17,0,0,0-1.8,3.43,15,15,0,0,0-.59,4.62,20.05,20.05,0,0,0,.92,4.43c1.12,3.08,2.26,6.16,3.48,9.2a13.79,13.79,0,0,0,6,6.89,35.09,35.09,0,0,0,5,2.31,31.1,31.1,0,0,0,9.28,2c2.54.17,5.1.54,7.65,0,.9-.19,1.8-.37,2.71-.51a11.2,11.2,0,0,0,4.63-2,33,33,0,0,0,2.67-2.33A33.81,33.81,0,0,0,226.8,182a23.43,23.43,0,0,0,3.51-7.1,19.19,19.19,0,0,0,.77-6.82,4.41,4.41,0,0,0-.16-1.08c-.4-1.4-.78-2.81-1.26-4.19a33.78,33.78,0,0,0-1.57-3.9,6.55,6.55,0,0,0-3-3.09c-1.65-.82-3.31-1.63-5-2.41a17,17,0,0,0-2.71-1.07c-1.83-.49-3.69-.88-5.54-1.28A9.05,9.05,0,0,0,207.79,151ZM106.12,184a21.29,21.29,0,0,0,2.58-.37,32.29,32.29,0,0,1,7.32-.77,12.25,12.25,0,0,1,3.64.46,41.16,41.16,0,0,0,5.81,1.46,5.56,5.56,0,0,1,1.71.64.75.75,0,0,1,.31,1.07,1.71,1.71,0,0,1-2.31.92c-.73-.25-1.47-.45-2.19-.69a8.37,8.37,0,0,1-1.28-.52A13.07,13.07,0,0,0,117,185a21.33,21.33,0,0,0-5-.08c-1.17.12-2.33.29-3.5.47-.2,0-.38.22-.65.39a7.16,7.16,0,0,0,2.83,1.43c2.84,1,5.73,1.87,8.59,2.86A24.61,24.61,0,0,0,131,191.39a21.12,21.12,0,0,0,5.8-1.36,10.77,10.77,0,0,1,1.44-.52,12.6,12.6,0,0,0,2.55-1.06,22.46,22.46,0,0,1,3-1.5,14.92,14.92,0,0,0,3.38-2.12,8.18,8.18,0,0,0,2.36-2.22,34.54,34.54,0,0,0,1.95-3.52,53.53,53.53,0,0,0,3-10.18,12.73,12.73,0,0,0,.27-3.89,5.1,5.1,0,0,1,0-.78,14.08,14.08,0,0,0-1.35-6.06,18.88,18.88,0,0,0-3.27-4.88,8.25,8.25,0,0,0-.79-.76,19,19,0,0,1-7,1.07c-.26,0-.51,0-.77,0-2.6.17-5.2.42-7.8.52q-5.52.18-11.06.19a57.46,57.46,0,0,1-9.79-.71,46.42,46.42,0,0,1-4.94-1.12,1.75,1.75,0,0,0-1.82.44c-1.22,1.12-2.53,2.13-3.73,3.26a17.63,17.63,0,0,0-2.25,2.55,13.58,13.58,0,0,0-2.32,7.51,7.86,7.86,0,0,0,.32,2.94,35.63,35.63,0,0,0,1.23,3.37,37.25,37.25,0,0,0,3,6.15C103.59,180.51,104.8,182.25,106.12,184Zm114.34-25.94c-1.09-.55-2.11-1.15-3.19-1.6-2.23-.92-4.48-1.77-6.73-2.62a54.85,54.85,0,0,0-10.2-2.8,17.69,17.69,0,0,0-5.33-.35,13.79,13.79,0,0,0-6,2.1c-1.24.84-2.41,1.76-3.63,2.63a5.68,5.68,0,0,0-1.52,1.84c.33.13.59.26.87.35s.8.18,1.19.31A31.83,31.83,0,0,0,192,159.5a14.5,14.5,0,0,1,2.71.47,20.11,20.11,0,0,0,5.28.66,7,7,0,0,1,.92.05,20.25,20.25,0,0,0,4.73.25c2.55-.12,5.11-.28,7.67-.23a26.26,26.26,0,0,0,6.49-.91,3.73,3.73,0,0,0,.64-.27Zm-110.27-7.45a4.15,4.15,0,0,0,2,.93,47,47,0,0,0,4.71.59c1.07.06,2.13.24,3.2.24,3,0,5.93-.06,8.89-.1.66,0,1.32-.11,2-.12,1.28,0,2.56.06,3.83,0,3.15-.21,6.31-.42,9.45-.81.61-.08,1.22-.18,1.82-.29a3.41,3.41,0,0,0,.58-.31,5.63,5.63,0,0,0-2-1.33,18,18,0,0,1-2.79-1.26,7.09,7.09,0,0,0-2.87-1c-1.11-.16-2.23-.29-3.32-.53a30.93,30.93,0,0,0-7.6-.85h-.46a25.1,25.1,0,0,0-6.52.8c-2.47.68-4.91,1.46-7.32,2.31A35.29,35.29,0,0,0,110.19,150.63ZM150.13,147l-1.66-.61c-.34-.11-.7-.16-1-.29-3.64-1.43-7.5-2.09-11.23-3.19-.34-.1-.7-.14-1.05-.21a42.55,42.55,0,0,0-7.64-.67,33.13,33.13,0,0,0-6,.28,65.26,65.26,0,0,0-13.76,3.77,7.81,7.81,0,0,0-1.45.84.65.65,0,0,0-.28.82,4.23,4.23,0,0,0,1.23,1.77,1.45,1.45,0,0,0,1.58.22c.19-.08.37-.19.55-.28a71.79,71.79,0,0,1,7.37-3,52.25,52.25,0,0,1,9.85-2.18,12.73,12.73,0,0,1,2.14-.06c1.73.05,3.44.43,5.18.4a1.94,1.94,0,0,1,.76.1,26.78,26.78,0,0,0,4.35.86A38.4,38.4,0,0,1,143.9,147c1.77.66,3.48,1.5,5.22,2.25.27.12.56.2.78.28a1,1,0,0,0,.55-1.24C150.33,147.92,150.25,147.52,150.13,147Zm37.14,4.52a3.79,3.79,0,0,0-.75-.06,20.38,20.38,0,0,0-4.37,1.45,4.64,4.64,0,0,0-1.81,1.42,1.33,1.33,0,0,0,.06,1.58,1.23,1.23,0,0,0,1.67.12,2.55,2.55,0,0,0,.41-.46,6.75,6.75,0,0,1,1.91-1.78C185.3,153.17,186.15,152.43,187.27,151.54Z"/><path class="cls-2" d="M92.38,162.58c-1.32-.81-1.3-.87-1.11-2.06.17-1,.21-2.07.29-3.11.18-2.24.35-4.47.53-6.71a7,7,0,0,1,.16-.77,11.21,11.21,0,0,0,.36-3.56,2.34,2.34,0,0,1,.09-1.09c.63-1.5.69-3.15,1.2-4.68.31-.94.7-1.84,1-2.76.11-.29.22-.58.31-.88a30.19,30.19,0,0,1,1.35-3.65c1.1-2.41,2.13-4.86,3.18-7.3a4.06,4.06,0,0,1,.4-.84,26.77,26.77,0,0,0,2.32-4.4,19.54,19.54,0,0,0,1-2.79,3.72,3.72,0,0,1,.35-1,21.47,21.47,0,0,0,1.75-4c.23-.52.49-1,.73-1.55l.83-1.85c.17-.37.31-.78.51-1.13,1-1.8,2.16-3.55,3.15-5.38,1.21-2.25,2.76-4.26,4.09-6.42.17-.27.31-.54.46-.82a15.67,15.67,0,0,1,2.37-3.45c.73-.8,1.38-1.67,2-2.52a25.6,25.6,0,0,1,4.39-4.13c1.61-1.29,3.34-2.42,5.05-3.56a30.75,30.75,0,0,1,2.68-1.52c1.73-.91,3.5-1.73,5.18-2.73a21.92,21.92,0,0,1,5.25-2.13,4.2,4.2,0,0,0,1-.33,5.26,5.26,0,0,1,2-.65,2.34,2.34,0,0,0,.89-.23,24.51,24.51,0,0,1,4-1.52c1.2-.45,2.44-.77,3.63-1.23a35.38,35.38,0,0,0,5.54-2.26,10.23,10.23,0,0,1,2.92-.9,5.5,5.5,0,0,0,1.89-.6,2.35,2.35,0,0,1,1.33-.29,6.91,6.91,0,0,0,1.82-.2,6.88,6.88,0,0,1,2.59-.22,23.4,23.4,0,0,1,4.24.59c.74.21,1.51.24,2.27.38s1.39.29,2.29.47a11.51,11.51,0,0,1,1.84-.63,16.13,16.13,0,0,1,3-.32,15.65,15.65,0,0,1,2.12.36,46.78,46.78,0,0,0,6.26.53,38.5,38.5,0,0,1,7,.72q3,.51,5.91,1A13.39,13.39,0,0,1,209.61,72c1.07.62,2.12,1.26,3.19,1.87.4.23.83.41,1.25.61a28.62,28.62,0,0,1,4.35,2.9c1.73,1.21,3.38,2.54,5,3.83.45.34.86.73,1.31,1.07l4.23,3.1c1.2.89,2.42,1.76,3.59,2.69a14.63,14.63,0,0,1,1.44,1.4l3.22,3.35a12.07,12.07,0,0,1,.84.91c1.33,1.72,2.76,3.37,3.93,5.2a25,25,0,0,1,3.41,7.32,73.34,73.34,0,0,1,1.82,8.72,31,31,0,0,1,.12,6.24c-.13,1.67-.11,3.35-.27,5a32.54,32.54,0,0,1-1.62,7.48,15.61,15.61,0,0,0-.66,3.68c-.15,1.46-.14,2.92-.21,4.38a27.1,27.1,0,0,0,.46,6.23c.28,1.55.59,3.08.82,4.63a74.53,74.53,0,0,0,1.88,8.08c.24.9.42,1.83.64,2.74.49,2.08,1,4.15,1.48,6.24a31.89,31.89,0,0,1,.78,8.71,50,50,0,0,1-.61,7c-.22,1.12-.48,2.24-.81,3.33a64.29,64.29,0,0,1-3.46,9.54c-.29.61-.51,1.25-.74,1.89-.93,2.54-1.84,5.09-2.76,7.64-.29.78-.54,1.58-.88,2.34a39.94,39.94,0,0,0-2.51,7.71c-.72,3.11-1.2,6.25-1.66,9.4a28.28,28.28,0,0,0-.22,4.22c0,2.93.46,5.83.7,8.74.18,2.14.19,4.29.44,6.41a21.2,21.2,0,0,1-.13,5.46,25.81,25.81,0,0,1-.77,3.51c-.5,1.7-1.07,3.38-1.67,5.05-.47,1.32-1,2.62-1.56,3.92a47.59,47.59,0,0,0-2.55,8.37,24.34,24.34,0,0,0,.29,11.93c.44,1.5.85,3,1.25,4.53a33.41,33.41,0,0,0,4.26,9.16,50.79,50.79,0,0,0,3.29,4.53c.67.85,1.51,1.56,2.25,2.34a1.77,1.77,0,0,1,.43.63c.06.16-.05.37-.09.63-1.07-.29-2.08-.44-2.59-1.55a2.5,2.5,0,0,0-.61-.7,10.72,10.72,0,0,1-1.87-2.26c-.37-.62-.92-1.12-1.34-1.7-.3-.42-.52-.89-.79-1.33a3.69,3.69,0,0,0-.58-.89,1.53,1.53,0,0,1-.69-1.61c0-.14-.16-.35-.27-.51a7.46,7.46,0,0,1-1.36-2.73,5.65,5.65,0,0,0-.51-1.31,30.22,30.22,0,0,1-1.77-5.16c-.31-1.25-.8-2.46-1.21-3.69a3.43,3.43,0,0,1-.23-1.68,2.29,2.29,0,0,0,0-.78,21.94,21.94,0,0,1,.34-7.62c.32-1.53.61-3.06.87-4.6a17.46,17.46,0,0,1,1.2-3.55,28.42,28.42,0,0,0,1.59-4.57.42.42,0,0,1,0-.15c.74-1.73,1.12-3.58,1.76-5.34a15.51,15.51,0,0,0,.94-5.83,69.68,69.68,0,0,0-.44-7.35c-.17-1.34-.15-2.71-.23-4.06a10.23,10.23,0,0,0-.22-1.15,3.13,3.13,0,0,0-.61.36c-.53.56-1,1.17-1.57,1.72a2.69,2.69,0,0,1-1.37,1,1,1,0,0,0-.55.49c-.26.44-.45.93-.69,1.4a5.76,5.76,0,0,1-2.88,2.79l-1-.58a1.52,1.52,0,0,0-.37.26c-.55.82-1.07,1.66-1.63,2.47a4.15,4.15,0,0,1-.74.77,1.33,1.33,0,0,1-1.57.2c-.37-.18-.75-.34-1.14-.52-.61.14-.85.69-1.15,1.16s-.61,1-.93,1.44a1.8,1.8,0,0,1-1.3.74.58.58,0,0,1-.5-.24.77.77,0,0,1,0-.58c0-.13.21-.22.3-.33a5,5,0,0,0,.93-1.23c.54-1.57,1.73-2.61,2.69-3.77.74-.06,1.09.47,1.54.78.72.49,1,.44,1.46-.33a7.3,7.3,0,0,0,.75-1.54c.29-1,1.18-1.39,1.94-1.89a.78.78,0,0,1,1,.09c.18.17.39.3.64.49a6.77,6.77,0,0,0,.5-.66c.29-.5.55-1,.81-1.51a7.24,7.24,0,0,1,2.59-2.79,19,19,0,0,0,2.38-1.94,1.3,1.3,0,0,0,.31-.68,2.55,2.55,0,0,0,0-.78,31.23,31.23,0,0,1,.78-9.49c.24-1.11.32-2.26.52-3.38a34.69,34.69,0,0,1,1.69-6.65c.53-1.36.85-2.79,1.35-4.16,1.15-3.18,2.35-6.35,3.53-9.51a17.64,17.64,0,0,1,.74-1.73,32.81,32.81,0,0,0,2.1-5.71c.27-.95.54-1.91.89-2.83a23.46,23.46,0,0,0,1.44-5.9c.18-1.61.44-3.21.5-4.83a37.55,37.55,0,0,0-1-9.63q-.69-3.14-1.44-6.25c-.3-1.27-.69-2.51-1-3.79-.47-2.08-.9-4.17-1.31-6.26a35.87,35.87,0,0,1-.56-3.55,61.8,61.8,0,0,1-.78-6.22c0-1.25-.12-2.51-.06-3.76a25.32,25.32,0,0,1,1.2-7.37,26,26,0,0,0,1-4.08,30.3,30.3,0,0,0,.27-3.57c.07-1,.18-2.09.15-3.13,0-2.23.23-4.48-.26-6.69a16.67,16.67,0,0,1-.27-1.86,37,37,0,0,0-2.66-9.58,9.07,9.07,0,0,0-.76-1.36c-.57-.93-1.13-1.86-1.73-2.77a8.56,8.56,0,0,0-1.76-2.17,5.16,5.16,0,0,1-.62-.69,46.82,46.82,0,0,0-6.84-7c-1-.82-2.14-1.6-3.23-2.39-2.08-1.51-4.18-3-6.24-4.54s-3.79-3-5.75-4.42a34.14,34.14,0,0,0-3.29-2c-.94-.53-1.94-1-2.86-1.51a14.42,14.42,0,0,0-5.48-1.88c-2.38-.37-4.75-.77-7.13-1.15a16.34,16.34,0,0,0-4.42-.26,12.66,12.66,0,0,1-2.75-.05c-1.63-.19-3.25-.47-4.87-.71a9.14,9.14,0,0,0-4,.18c-.79.22-1.58.41-2.43.63-.22-.22-.43-.44-.65-.64a2.23,2.23,0,0,0-.6-.47,12.16,12.16,0,0,0-4.14-1.06,38.53,38.53,0,0,0-6.44.27,33.54,33.54,0,0,0-4.43,1.28c-3.28,1-6.42,2.41-9.61,3.65-1.49.57-3,1-4.53,1.5s-2.82.94-4.22,1.44-2.5.93-3.74,1.41a3.25,3.25,0,0,0-.43.18c-1.6.8-3.22,1.59-4.8,2.43s-3.22,1.63-4.73,2.6A46.16,46.16,0,0,0,121,90.4a31.2,31.2,0,0,0-4,5.17c-2.13,3.32-4.25,6.65-6.16,10.1a81.46,81.46,0,0,0-3.82,7.51c-1.06,2.48-2,5-3.07,7.51a33.76,33.76,0,0,1-1.56,3.4A91.24,91.24,0,0,0,97.26,135c-.57,1.46-1.2,2.89-1.72,4.36a27.27,27.27,0,0,0-1.34,6.27c-.35,3.27-.72,6.54-1,9.82-.12,1.34,0,2.71,0,4.07A6.81,6.81,0,0,1,92.38,162.58Z"/><path class="cls-2" d="M205.82,222.8c0,.49,0,.84-.08,1.18a2.51,2.51,0,0,1-2.62,2.46,7.13,7.13,0,0,1-2.43-.31,3.65,3.65,0,0,0-.82-.1c-.17.11-.29.14-.34.21-1,1.62-2.56,2-4.27,1.95a7.85,7.85,0,0,1-3.2-.77c-.17.05-.31.05-.35.12a4.18,4.18,0,0,1-2.77,1.79,5.43,5.43,0,0,1-3.6-.3l-1.85-.91c-.35.48-.73,1-1.07,1.48a4.66,4.66,0,0,1-1.76,1.48,2.08,2.08,0,0,1-1.48.24c-.7-.14-1.4-.29-2.1-.47a3.05,3.05,0,0,1-2.09-1.46c-.07-.12-.24-.18-.37-.28-.65.2-.93.8-1.34,1.25a2.58,2.58,0,0,1-2.5.88,7,7,0,0,1-2.07-1,12.37,12.37,0,0,1-1.44-1.27,4.51,4.51,0,0,1-3.25,1,4.72,4.72,0,0,1-2.88-1.94c-.2.08-.38.09-.46.19-1.27,1.53-3,1.58-4.77,1.63a2.27,2.27,0,0,1-1.64-.75c-.56-.53-1.14-1-1.8-1.65-.1.08-.34.24-.56.43a2.61,2.61,0,0,0-.42.46A4.55,4.55,0,0,1,147,230a18.19,18.19,0,0,1-2.57-.47,3.5,3.5,0,0,1-2.71-2.5,9.13,9.13,0,0,0-.88-1.69c-.62.26-1.17.53-1.74.73-.72.25-1.45.49-2.19.68a2.24,2.24,0,0,1-2.39-.68,2.7,2.7,0,0,1-.55-.9,14.66,14.66,0,0,1-.38-1.55,3,3,0,0,0-1.6.86,7.32,7.32,0,0,1-2.75,1.33,3,3,0,0,1-2.46-.54,2.1,2.1,0,0,1-1-1.79.82.82,0,0,0-.14-.28c-.27-.18-.47,0-.68.16-1.06.72-2.16,1.38-3.28,2a5.05,5.05,0,0,1-4.28.43l-1-.35c-.73.36-.81,1.07-.91,1.72a14.45,14.45,0,0,0,.16,5.75,19,19,0,0,0,3.8,8,9.31,9.31,0,0,1,.61.89,50.84,50.84,0,0,0,4,5.59,5.48,5.48,0,0,1,1.23,2.48,1.09,1.09,0,0,1-.47,1.23,1.13,1.13,0,0,1-1.3,0,3.13,3.13,0,0,1-.67-.64c-1-1.3-2-2.62-3-3.92a11,11,0,0,1-1.79-2.72,1.54,1.54,0,0,0-.33-.52c-1.61-1.49-2.34-3.5-3.22-5.45a26.47,26.47,0,0,1-1.71-6.16,12.55,12.55,0,0,1,0-2.81,10.54,10.54,0,0,1,.91-4.25c.37-.74.81-1.45,1.22-2.17a12.21,12.21,0,0,0,.65-1.24,23.68,23.68,0,0,1,4.44-6.52c.2-.23.51-.43.6-.7a5.39,5.39,0,0,1,1.76-2.13,23.8,23.8,0,0,0,2.73-2.95,1.55,1.55,0,0,1,1.1-.75c.55-.06.88-.75,1.57-.59a1.51,1.51,0,0,1-.33,1.7c-.72.89-1.52,1.7-2.26,2.56s-1.59,1.91-2.37,2.87c0,.06,0,.18,0,.28s.07.1.11.1c.29,0,.6-.29.85.05s.08.7-.41,1.06a22.61,22.61,0,0,0-3.36,3.2,15.8,15.8,0,0,0-1.71,2.4,1.13,1.13,0,0,0,.77,1.78,3.58,3.58,0,0,0,2.55-.26c.72-.37,1.41-.83,2.12-1.24a4.06,4.06,0,0,0,1.4-1.18c.24-.37.72-.57,1.05-.89a24.83,24.83,0,0,0,2.33-2.26,6.17,6.17,0,0,1,1.7-1.26.62.62,0,0,1,.56.07.69.69,0,0,1,.13.56,7.4,7.4,0,0,1-1.09,2.22,7.38,7.38,0,0,0-1.18,2.54,4.4,4.4,0,0,0-.08.87,1.5,1.5,0,0,0,2,.45,1.88,1.88,0,0,0,.55-.27c1-.77,2.06-1.55,3-2.36a3.85,3.85,0,0,0,.65-.84c.15-.21.26-.46.42-.66.37-.45,1.59-.9,1.94-.63.6.44.21,1.05.08,1.57a18.5,18.5,0,0,1-.55,1.79,3.6,3.6,0,0,0-.13,2,.63.63,0,0,0,.65.55,2.72,2.72,0,0,0,1.33-.29,20.67,20.67,0,0,0,3.52-2.51,17.68,17.68,0,0,1,1.47-1.11.67.67,0,0,1,.86,0,.86.86,0,0,1,.18.7,12.67,12.67,0,0,1-.54,2.12,3.29,3.29,0,0,0,.89,3.44,1.79,1.79,0,0,0,.93.49c.9.2,1.82.34,2.72.5.1,0,.24,0,.3,0,1-.75,2.39-1,2.8-2.48a8.67,8.67,0,0,1,.45-1.33,1.49,1.49,0,0,1,2.11-.57,1.2,1.2,0,0,1,.45,1,4.72,4.72,0,0,0,1.5,2.67,1.48,1.48,0,0,0,1.81.38,5.13,5.13,0,0,0,2.44-2.07,9.51,9.51,0,0,1,.53-.94,3.9,3.9,0,0,1,.92-.8c.27-.16.39-.09,1.32.36,0,.54.07,1.11.12,1.68a2.32,2.32,0,0,0,1.11,1.79.8.8,0,0,0,1.28-.31,13.42,13.42,0,0,0,.48-1.48,2,2,0,0,1,1-1.29,1.17,1.17,0,0,1,1.66.62c.16.38.19.81.32,1.21a4,4,0,0,0,2.42,2.67,4.49,4.49,0,0,0,1.82-2.45c.07-.2.09-.41.14-.61.37-1.34,1-1.66,2.45-1.25.14.57.28,1.18.44,1.77a3.71,3.71,0,0,0,2.89,2.71,1.27,1.27,0,0,0,1.48-.55,5.91,5.91,0,0,0,1.38-3.89,1.62,1.62,0,0,1,1.22-1.87c.65-.23,1-.11,1.18.53s.25,1,.37,1.53a2.91,2.91,0,0,0,3.4,2.39,1.48,1.48,0,0,0,1.4-1.23c.17-.76.31-1.52.47-2.35.21-.36.64-.36,1-.47,1.23-.34,1.39-.28,1.8.92a2.37,2.37,0,0,0,1.41,1.72c1.78.64,2.67.26,3.6-1.63-.18-.42-.41-.89-.58-1.37a1.09,1.09,0,0,1,.8-1.57,2.16,2.16,0,0,1,.9-.12,1.76,1.76,0,0,1,.78.4,1.3,1.3,0,0,1,.28.55,2.79,2.79,0,0,0,2.7,1.93c.54-.21.38-.85.69-1.16a7.91,7.91,0,0,1,1.09-.73c-.79-.72-1.55-1.4-2.3-2.1-1.14-1.05-2.27-2.1-3.37-3.19a.87.87,0,0,1-.18-.69c0-.14.27-.3.45-.36a2.8,2.8,0,0,1,2.84.69l3.25,2.86c.27.24.53.49.82.7l3.94,2.72a1.86,1.86,0,0,1,.59.48,8.24,8.24,0,0,0,1.87,1.81,5.09,5.09,0,0,1,1.36,2.59,25.72,25.72,0,0,1,.83,10.54,16.6,16.6,0,0,1-1.34,4.8,69.89,69.89,0,0,1-3.11,6.47c-.19.31-.33.65-.54.94a37,37,0,0,0-3.53,6.6c-.17.38-.32.76-.51,1.14a1,1,0,0,1-1.1.63,1.24,1.24,0,0,1-1.06-1,2.75,2.75,0,0,1,.15-1.21,44.46,44.46,0,0,1,3.93-7.6,31.05,31.05,0,0,0,2.87-5.7,24.87,24.87,0,0,0,1.36-4.15,24.19,24.19,0,0,0,.32-4.66,23.53,23.53,0,0,0-1-6.14,4.2,4.2,0,0,0-1.47-2.32c-1-.79-2-1.66-3-2.48A5.92,5.92,0,0,0,205.82,222.8Z"/><path class="cls-2" d="M204.58,287.3l1.24.86a2.67,2.67,0,0,0,.94-1.8,13.74,13.74,0,0,1,1.29-3.66,6.64,6.64,0,0,1,2.31-2.67c.64-.45.79-.41,1.42.21a4.12,4.12,0,0,0,.43.35,2.89,2.89,0,0,0,.35-.67c.19-.76.36-1.52.48-2.3a4.32,4.32,0,0,1,.8-2c.55-.74,1-1.53,1.57-2.3a2.14,2.14,0,0,1,1.59.25c.53-.16.63-.65.73-1.09.16-.76.23-1.54.38-2.3a19.06,19.06,0,0,1,.66-2.73,3.82,3.82,0,0,1,1.12-2,5.49,5.49,0,0,1,3.46-1.44,1,1,0,0,0,.3-.05s.08-.06.06,0c.37-1,.77-2,1-3s1.26-1.47,1.79-2.29a7.12,7.12,0,0,1,2.48-1.89c0-1.15,0-2.28,0-3.42a1.12,1.12,0,0,1,.73-1.23,5.94,5.94,0,0,0,1-.62c.14.17.28.28.3.41a4.73,4.73,0,0,1,.11.93,20.53,20.53,0,0,1-.52,4.48,1.88,1.88,0,0,1-1.47,1.62,3.67,3.67,0,0,0-2.77,2.62,24.69,24.69,0,0,0-1.23,4.18c0,.21-.09.4-.15.62s-.33.25-.5.36a1.47,1.47,0,0,1-2.19-.15.69.69,0,0,0-1.17.09,5.12,5.12,0,0,0-1,2.43c-.11,1-.23,2-.37,2.95a7.46,7.46,0,0,1-1,3,2,2,0,0,1-2.56,1.15c-.65-.2-.93,0-1.12.7a6,6,0,0,0-.14.61c-.33,1.58-.69,3.15-1,4.74a1.94,1.94,0,0,1-1.13,1.38.9.9,0,0,1-.72,0c-.61-.27-1.18-.6-1.86-1-.42.08-.63.51-.77.95-.29.89-.51,1.8-.76,2.71s-.58,2.11-.89,3.16a3.47,3.47,0,0,1-1.82,2.15l-1.51-1.06a4.38,4.38,0,0,0-1.41,2c-.52,1.08-1,2.17-1.51,3.25a3.06,3.06,0,0,1-2.16,2,5,5,0,0,1-1.81-1.11,1.16,1.16,0,0,0-1.87.15,7,7,0,0,0-.51.78c-.6.91-1.17,1.84-1.8,2.72a2.18,2.18,0,0,1-2.7.9,9,9,0,0,1-2.71-1.44c-.32-.25-.65-.47-1-.69a2.69,2.69,0,0,0-1.55,1.34,3.49,3.49,0,0,1-.4.67c-.92,1.14-1.67,1.2-2.69.18s-2.18-2.18-3.21-3.32a2.07,2.07,0,0,0-2.65-.51,4.69,4.69,0,0,0-1.38,1c-.65.66-1.2,1.42-1.82,2.12a9.06,9.06,0,0,1-1.22,1.18,1.88,1.88,0,0,1-2.52,0,9.09,9.09,0,0,0-4-1.85,4.86,4.86,0,0,0-1.7,1.79,2.88,2.88,0,0,1-2.18,1.55c-.9-.44-1.91-.93-2.91-1.44s-1.84-1.36-3.14-1.53c-.38.38-.81.83-1.25,1.25a19.4,19.4,0,0,1-1.71,1.56c-1.07.8-1.68.78-2.55-.18s-1.76-2.16-2.65-3.24c-.22-.27-.46-.52-.74-.83l-.94.62c-.67.47-1.34,1-2,1.41a1.77,1.77,0,0,1-2.16,0c-1.41-1.05-2.86-2.13-3.48-3.85a17.12,17.12,0,0,0-2.14-3.42.63.63,0,0,0-1-.1c-.27.23-.53.5-.78.75-.55.55-1.09,1.11-1.65,1.64a5.64,5.64,0,0,1-1.83,1.12,1.79,1.79,0,0,1-2.21-.55,8.64,8.64,0,0,1-2.14-3.92,13,13,0,0,1-.45-2.77,2.16,2.16,0,0,0-.82-1.88,2.07,2.07,0,0,0-1.46.53,1.28,1.28,0,0,1-1.69-.19,10.45,10.45,0,0,1-1.17-1.23,13.33,13.33,0,0,1-2.34-3.61,7.92,7.92,0,0,0-1.37-2.62,4.75,4.75,0,0,0-.49-.6,1.29,1.29,0,0,0-1.7-.11c-.25.16-.45.41-.7.59a10.58,10.58,0,0,1-1.41.91,1.4,1.4,0,0,1-1.7-.32,5.06,5.06,0,0,1-1.36-2.05A25,25,0,0,1,109,276a24.44,24.44,0,0,0-.9-3c-.19-.59-.37-1.2-.61-1.77s-.43-.73-1.16-.72a6.33,6.33,0,0,1-1.51-.12,1.34,1.34,0,0,1-1.07-1.2,19.67,19.67,0,0,1-.23-3,14.36,14.36,0,0,0-.9-5,2.1,2.1,0,0,0-1.57-1.54,11.78,11.78,0,0,1-2-.79,2.38,2.38,0,0,1-1.37-2.29c.09-1.8-.16-3.65.5-5.39a4.42,4.42,0,0,1,.48-.7,4,4,0,0,1,.58,2.46c0,.57-.1,1.14-.11,1.72a2.31,2.31,0,0,0,2.17,2.53,4.59,4.59,0,0,1,.91.07,1.49,1.49,0,0,1,.77.45,5.39,5.39,0,0,1,1.14,2.2c.15,1,.34,1.95.47,2.93.17,1.24.29,2.49.44,3.73a3.27,3.27,0,0,0,.2.76c.31.91.65,1.1,1.63,1a1.62,1.62,0,0,1,2,1.15,9.54,9.54,0,0,1,.87,3.48,12.3,12.3,0,0,0,1.69,5.15,7.47,7.47,0,0,0,.67.84c.65.92,1.3.8,2.08.12.38-.33.71-.75,1.11-1.07a1.65,1.65,0,0,1,2.36,0,4.09,4.09,0,0,1,1.3,1.72c.39.91.75,1.83,1.15,2.73a8,8,0,0,0,3.24,3.66c.64.39,1,.3,1.44-.32.27-.37.5-.79.8-1.15a.6.6,0,0,1,.94.09,5.74,5.74,0,0,1,.81,2.34c.23,1.34.48,2.67.67,4a5.77,5.77,0,0,0,2.48,3.63,1,1,0,0,0,1.16,0,13.09,13.09,0,0,0,1.82-1.42c.63-.6,1.18-1.3,1.78-1.94a.87.87,0,0,1,1.24-.23,3.38,3.38,0,0,1,1,.74,20.54,20.54,0,0,1,1.44,2c.45.7.82,1.45,1.25,2.16a8.92,8.92,0,0,0,2.54,2.47,1,1,0,0,0,1,.09,5.05,5.05,0,0,0,1-.65c.75-.69,1.47-1.43,2.25-2.2a2.29,2.29,0,0,1,.76.45,23.45,23.45,0,0,1,2.74,3.37,4.11,4.11,0,0,0,1.87,1.53,2.56,2.56,0,0,0,1.39-1.23,7.65,7.65,0,0,1,1.73-1.77,1.28,1.28,0,0,1,1.43-.24,13,13,0,0,1,2.33,1.17,14.42,14.42,0,0,0,2.3,1.21c.71.31,1.05.23,1.43-.44a8.07,8.07,0,0,1,2-2.08,1.7,1.7,0,0,1,1.86-.33c.9.36,1.78.78,2.66,1.21.46.22.89.5,1.34.75a.85.85,0,0,0,1.11-.21,4.51,4.51,0,0,0,.47-.61,11.29,11.29,0,0,1,4.1-3.45,2.62,2.62,0,0,1,2.64,0,9.4,9.4,0,0,1,2.86,2.31c.48.54,1,1,1.53,1.53a1.59,1.59,0,0,0,.49.24c.6-.2.79-.73,1.14-1.1s.75-.85,1.15-1.26a1.24,1.24,0,0,1,1.68-.18c.56.36,1.06.82,1.6,1.2a6.92,6.92,0,0,0,1.42.9,1.39,1.39,0,0,0,1.83-.71c.42-.71.8-1.45,1.25-2.15a6.22,6.22,0,0,1,1.92-2,1.65,1.65,0,0,1,2.37.12c.35.29.64.69,1.16.71a2,2,0,0,0,.95-1c.49-.91,1-1.84,1.41-2.77.24-.52.4-1.08.62-1.6A3.39,3.39,0,0,1,204.58,287.3Z"/><path class="cls-2" d="M202.19,233.85a2.44,2.44,0,0,1,.2.57c0,1.45.1,2.91.08,4.37a11.1,11.1,0,0,1-.54,3.7,16.14,16.14,0,0,0-.47,2,17.73,17.73,0,0,1-2.19,4.81,33.46,33.46,0,0,1-3.56,5.46,10.15,10.15,0,0,1-1,1,49.12,49.12,0,0,0-4.28,4.49,13,13,0,0,1-4.81,3.55c-.9.38-1.78.81-2.7,1.13a1.21,1.21,0,0,0-.9,1.27c0,.37,0,.73,0,1.1a6,6,0,0,1-2.94,5.5,3.66,3.66,0,0,0-1.31,1.45,9,9,0,0,1-.92,1.44,3.7,3.7,0,0,1-.91.81,1,1,0,0,1-1.15-.05c-.37-.28-.73-.58-1.16-.93-.22.23-.43.43-.62.65-.9,1.07-1.78,2.16-2.71,3.2a6.22,6.22,0,0,1-1.21.94c-1,.65-1.34.61-2.08-.29a5.72,5.72,0,0,0-1.62-1.76l-1.14.9A3,3,0,0,1,162,280a10.58,10.58,0,0,1-1.86-.64l-.77.52a8.76,8.76,0,0,1-1,.67,2.76,2.76,0,0,1-3.29-.31c-.27-.23-.49-.52-.81-.86a6,6,0,0,0-.78.7,7.5,7.5,0,0,1-1.93,1.76,2.59,2.59,0,0,1-1,.39,1.71,1.71,0,0,1-2.1-1.36,12.66,12.66,0,0,1-.46-2.3c-.13-1.24-.16-2.5-.27-3.74a14,14,0,0,1,.42-4.19,3.19,3.19,0,0,0,0-2,.86.86,0,0,1,.1-.73,2.43,2.43,0,0,1,.72-.47,3.21,3.21,0,0,1,.38,2.51,16.35,16.35,0,0,0,.14,5.13c.1.93.23,1.86.34,2.79,0,.16,0,.32,0,.47.07,1,.28,1.34.85,1.49a1.84,1.84,0,0,0,2-.73,3.53,3.53,0,0,0,.33-.71,5.72,5.72,0,0,1,1.64-2.35,3.05,3.05,0,0,1,.65.5c.28.37.47.81.74,1.19A1.76,1.76,0,0,0,159,278c.46-.48.84-1,1.27-1.55a6.14,6.14,0,0,1,.62-.54c.22.24.39.42.54.6s.3.43.48.61c.73.75,1.22.78,2,.09.49-.45.94-.95,1.42-1.42a.87.87,0,0,1,1.45,0,7.93,7.93,0,0,1,.59.71c.13.17.22.36.34.52.91,1.18,1.46,1.2,2.45.1a12.3,12.3,0,0,0,2-2.78A7,7,0,0,1,173,273c.54-.65.82-.67,1.57-.17.22.15.43.29.63.45s.38.32.64.54a2.71,2.71,0,0,0,.37-.75,4.05,4.05,0,0,1,1.82-2.74l1.14.1c.92-1.43,1-1.65,1.17-4.32-.25-.28-.57-.19-.85-.09a31,31,0,0,1-7.5,1.57c-1.48.16-3,.29-4.42.53a42.06,42.06,0,0,1-6.14.26,21.79,21.79,0,0,1-3.2-.37c-2.13-.27-4.27-.51-6.4-.82a13.5,13.5,0,0,1-4.59-1.12c-1.76-.22-3.28-1.16-4.94-1.7a6.89,6.89,0,0,1-1.73-1,15.5,15.5,0,0,1-3.21-3.11c-1.54-2-3.17-3.83-4.77-5.73a11.2,11.2,0,0,1-1.48-2.37c-.94-1.92-1.93-3.8-2.88-5.7a10.31,10.31,0,0,1-1.15-3.23c-.07-.57-.27-1.11-.39-1.67-.29-1.33-.61-2.64-.83-4a1.8,1.8,0,0,1,1.06-2,3.05,3.05,0,0,1,.55.64,2.78,2.78,0,0,1,.28.9,36.93,36.93,0,0,0,2.07,6.86,58.41,58.41,0,0,0,3.83,8,36.86,36.86,0,0,0,3,3.95c.51.65,1.1,1.23,1.61,1.89a14.77,14.77,0,0,0,3.69,3.5,15.48,15.48,0,0,0,3.47,1.63c1.75.59,3.55,1,5.33,1.47a4.78,4.78,0,0,0,1.06.17,42.83,42.83,0,0,1,6.07.85c1.52.24,3,.37,4.57.53a23.29,23.29,0,0,0,5.2-.39c2.28-.27,4.57-.6,6.84-.94a16.94,16.94,0,0,0,2.24-.52c1.24-.35,2.45-.78,3.69-1.09a23.4,23.4,0,0,0,5.14-2.06,14.23,14.23,0,0,0,4.08-3.52c.53-.63,1.14-1.18,1.73-1.77.29-.29.62-.55.89-.85.82-.93,1.67-1.84,2.42-2.83s1.28-1.88,1.89-2.85,1-1.69,1.5-2.54a.82.82,0,0,0,.14-.28,49.82,49.82,0,0,0,1.68-5.19A5.86,5.86,0,0,0,200,240c-.1-1.71.32-3.41.13-5.14-.05-.46.24-.75.73-.84S201.69,233.91,202.19,233.85Z"/><path class="cls-2" d="M149.45,205.39c.51-2.26,1-4.52,2.89-6.07.55,0,.71.41.69.82a10.44,10.44,0,0,1-.33,1.84,13,13,0,0,1-.51,1.64,2.24,2.24,0,0,0,.72,2.67,6.69,6.69,0,0,0,2.08,1.3,22.63,22.63,0,0,1,2.25,1,5.11,5.11,0,0,1,1.54,1,4.44,4.44,0,0,0,1.8,1.12c.62.25,1.22.56,1.85.76a19.05,19.05,0,0,0,2.23.54c.6.12,1.22.15,1.82.25a8.66,8.66,0,0,0,5.36-.93A16.59,16.59,0,0,0,174.1,210a30,30,0,0,1,4-2.23,13.2,13.2,0,0,1,4.92-1.1c1.13-.08,2.26-.09,3.38-.19a12.6,12.6,0,0,0,2.11-.37,2.84,2.84,0,0,0,2.14-3.3,10.05,10.05,0,0,0-.45-1.48c-.07-.24-.11-.49-.19-.82a8.85,8.85,0,0,1,.85-.39c.28-.11.57-.18.86-.27a2.69,2.69,0,0,1,1.33,2,5.54,5.54,0,0,1-4,6.35,20.47,20.47,0,0,1-5.61.77,13.33,13.33,0,0,0-8.12,2.9,16.86,16.86,0,0,1-5.87,2.57,10.48,10.48,0,0,1-5.88-.4c-1.43-.44-2.91-.55-4.33-1a3.37,3.37,0,0,1-1.4-.57,17.88,17.88,0,0,0-5.4-3.22,3.18,3.18,0,0,1-.4-.23,9.2,9.2,0,0,0-1.86-1.07,9.25,9.25,0,0,0-2.12-.17c-.36,0-.72-.06-1.07-.11-3.45-.5-5.2-2.8-6.15-6a4.55,4.55,0,0,1,.48-3.57,14.75,14.75,0,0,1,4.75-5,.5.5,0,0,1,.27-.14.63.63,0,0,1,.42.07.44.44,0,0,1,.13.39,4.7,4.7,0,0,1-.56.92,4.14,4.14,0,0,1-.7.62,7.67,7.67,0,0,0-2.35,3.23,3.15,3.15,0,0,0,.08,2.85c.26.51.48,1,.77,1.53a5.88,5.88,0,0,0,4.83,2.85C149.1,205.55,149.2,205.48,149.45,205.39Z"/><path class="cls-2" d="M135.09,235.12c.28.33.49.56.67.81s.06.33.16.43a19.65,19.65,0,0,1,2.38,3.77,5.49,5.49,0,0,0,.48.6,65.71,65.71,0,0,0,5.29,5,11.77,11.77,0,0,0,1.69,1.07l1.47.83a2.61,2.61,0,0,0,.53.31c1.38.37,2.77.73,4.16,1.08a41.45,41.45,0,0,0,7.44,1,7.21,7.21,0,0,1,1.35.28,20.46,20.46,0,0,0,6.24.64,28.79,28.79,0,0,0,6.07-.81,41.77,41.77,0,0,0,4.23-1.38c1.78-.7,3.63-1.11,5.43-1.68.68-.22,1.35-.48,2-.73a3.83,3.83,0,0,1,.43-.17A8.91,8.91,0,0,0,188,244.8a11.51,11.51,0,0,0,3-2.62c.44-.51.86-1,1.33-1.52a3.73,3.73,0,0,1,1-.9c.49-.23,1.12-.57,1.58-.2s0,1.05-.12,1.57a1.57,1.57,0,0,1-.31.53,24.94,24.94,0,0,1-4.86,5,11.58,11.58,0,0,1-2.17,1.16,8.53,8.53,0,0,0-2.07,1,.74.74,0,0,1-.44.14c-1.47,0-2.76.75-4.14,1.11-1,.28-2.06.62-3.08.95s-2.24.75-3.36,1.1a19.11,19.11,0,0,1-2.22.59c-1,.19-2,.31-3,.44s-1.93.22-2.89.32a2.1,2.1,0,0,1-.61-.05c-1.26-.2-2.52-.45-3.78-.6a9.66,9.66,0,0,0-2.15,0,16.15,16.15,0,0,1-4.28-.25,50.74,50.74,0,0,1-9.31-2.61,15.92,15.92,0,0,1-6-4.17c-.54-.56-1.11-1.08-1.64-1.65a12,12,0,0,1-2.6-3.61,22.34,22.34,0,0,1-1.49-3.26,1,1,0,0,0-.54-.48,1,1,0,0,1-.56-1.1c.24-.1.5-.24.77-.33S134.69,235.2,135.09,235.12Z"/><path class="cls-2" d="M197.4,231.64a4.79,4.79,0,0,1-2.22,1.72,12.61,12.61,0,0,1-4.07,1.31,11,11,0,0,0-2,.38,10.83,10.83,0,0,1-3.5.33c-1.58-.09-3.17,0-4.75,0-2.77,0-5.53,0-8.29,0a28.66,28.66,0,0,1-3.66-.48,4.89,4.89,0,0,0-2,.06,13.92,13.92,0,0,1-4.27.22c-2.61-.17-5.18-.65-7.76-1.07a11.63,11.63,0,0,0-2.28-.18,84.6,84.6,0,0,1-9.82-.41,28,28,0,0,1-4.23-.77c-1.89-.44-3.78-.93-5.66-1.44a4.22,4.22,0,0,1-1.86-.8,1.8,1.8,0,0,1,2.12-.93c1.54.36,3.11.5,4.64.92a21.74,21.74,0,0,0,5.87,1.09c1.8.57,3.67.19,5.5.39a10.35,10.35,0,0,0,2.28-.17,15.41,15.41,0,0,1,4.29,0c.8.13,1.62.18,2.44.26.2,0,.41,0,.61,0,1.66.29,3.32.57,5,.89a4.72,4.72,0,0,0,2,.05c.6-.13,1.21-.2,1.82-.27a5.7,5.7,0,0,1,2.43.07,7.79,7.79,0,0,0,1.68.19c2.19.15,4.39.29,6.58.45a34.39,34.39,0,0,0,5.65-.16c1.53-.14,3.07-.18,4.6-.31a14.05,14.05,0,0,0,4.73-1.17,10.86,10.86,0,0,1,2.63-.78A1.34,1.34,0,0,1,197.4,231.64Z"/><path class="cls-2" d="M140.48,238.63a3.16,3.16,0,0,1,.4-.53c.6-.48.89-.45,1.45.1a7.22,7.22,0,0,0,3.74,2,3.21,3.21,0,0,0,1.81-.16,7.71,7.71,0,0,1,1.63-.44,2.27,2.27,0,0,1,1.89.43,4.7,4.7,0,0,0,3.36.74,14.76,14.76,0,0,0,2-.21,1.33,1.33,0,0,1,1.46.62,3.57,3.57,0,0,0,1.13,1,3,3,0,0,0,2.33.51c.86-.15,1.73-.2,2.57-.38a2.52,2.52,0,0,1,1.65.18,3.11,3.11,0,0,1,.41.2,3.63,3.63,0,0,0,3.66-.09l1.09-.57a11.91,11.91,0,0,1,.23-1.51,16.34,16.34,0,0,1,.61-1.55,8.46,8.46,0,0,1,.88-.35.64.64,0,0,1,.88.71c-.07.57-.22,1.12-.34,1.69,0,.19-.09.39-.15.64a10.71,10.71,0,0,0,2.94.9,4.19,4.19,0,0,0,1.65-.26,4.67,4.67,0,0,0,1.43-.55,3.66,3.66,0,0,1,2.65-.48,3.25,3.25,0,0,0,2.23-.42,8.77,8.77,0,0,1,2.19-.91l1,.7c-.8,1.51-1.83,2.55-3.56,2.64-1,.06-2,.17-3,.32a6.24,6.24,0,0,0-1.31.42c-.48.19-.94.43-1.42.6a4.16,4.16,0,0,1-2.7.12c-.64-.19-1.3-.28-2-.43a3.23,3.23,0,0,0-2.52.33c-.22.13-.49.16-.72.28a4.44,4.44,0,0,1-3.85.07,21.62,21.62,0,0,0-2.52-.64,1.63,1.63,0,0,0-.76,0,7.7,7.7,0,0,1-1.51.09,6.41,6.41,0,0,1-5.39-2,1.69,1.69,0,0,0-.5-.23c-.23.75-.75,1.37-.47,2.21a.89.89,0,0,1-.29,1.05l-1.13-.35a4.19,4.19,0,0,1-.38-2.8c-1.22-.28-2.4-.57-3.6-.82a3.1,3.1,0,0,0-.91,0,1.8,1.8,0,0,0-.43.14,4,4,0,0,1-4.23-.26,3.25,3.25,0,0,0-1-.42A4.15,4.15,0,0,1,140.48,238.63Z"/><path class="cls-2" d="M110.8,165.12c-.4.22-.89.48-1.38.76-.75.45-1.5.89-2.24,1.35-.49.29-1,.6-1.44.89a3,3,0,0,1-.8.45,2.33,2.33,0,0,1-.82-.06,1.17,1.17,0,0,1,.71-1,19.47,19.47,0,0,1,3.62-2.34,2.55,2.55,0,0,0,.89-.6,18.13,18.13,0,0,1,5.23-3.23,28.9,28.9,0,0,1,4-1.45c1.53-.46,3-1,4.51-1.55a16.72,16.72,0,0,1,3.73-.88,5.4,5.4,0,0,0,.91-.14,12.17,12.17,0,0,1,5-.31,17.9,17.9,0,0,0,2.3.16,12.31,12.31,0,0,1,3.62.6,36.54,36.54,0,0,1,5.45,2.06A18.14,18.14,0,0,1,150,164a2.53,2.53,0,0,0,.59.5,2.39,2.39,0,0,1,.93,1.57,1.18,1.18,0,0,1-.49,1.23,1,1,0,0,1-1.28.06c-.35-.21-.7-.44-1-.67s-.55-.43-.91-.69l-1.2,1.26a5.46,5.46,0,0,1-1.8,1.14,25.58,25.58,0,0,1-4.75,1.25,20.52,20.52,0,0,1-3.51.27c-1.94,0-3.89,0-5.84,0a59.41,59.41,0,0,1-7.65-.48,31.94,31.94,0,0,1-7.09-1.94A55.56,55.56,0,0,1,110.8,165.12Zm27.42-5.07a25.23,25.23,0,0,0-6-1.13,19.42,19.42,0,0,0-2.75,0c-.77,0-1.52.18-2.29.21a9.74,9.74,0,0,0-4.52,1.34,7.32,7.32,0,0,0-1.29,1.08,1.27,1.27,0,0,0-.34.67,3.25,3.25,0,0,0,1.61,3.41c.67.44,1.52.61,2,1.35a.83.83,0,0,0,.54.25,9.46,9.46,0,0,0,1.07.06c1.58.08,3.18,0,4.74.25a21.79,21.79,0,0,0,4.42.06,2.46,2.46,0,0,0,2.4-1.33s.08-.06.12-.09a4.17,4.17,0,0,0,.84-4.88C138.57,161,138.43,160.58,138.22,160.05Zm8.3,4.61a12.56,12.56,0,0,0-3.34-2.71,1.38,1.38,0,0,0-1.19-.22,17.38,17.38,0,0,1-.29,2.6,19.93,19.93,0,0,1-1.06,2.57c1,.27,1.79-.4,2.69-.53C144.53,166.19,145.38,165.26,146.52,164.66Zm-27.33-3.31c-1.84.77-3.48,1.16-5,2-.14.08-.23.26-.39.46l4.07,1.66a2.22,2.22,0,0,0,.61,0C118.29,164.12,118.86,162.93,119.19,161.35Z"/><path class="cls-2" d="M222.47,170.67c-.69,1.48-.84,1.58-2.12,1.49-1.07-.07-2.13-.16-3.13-.24a1.22,1.22,0,0,0-.4,1.21,3.58,3.58,0,0,1-.75,2.47,3.78,3.78,0,0,0-.3.75c.21.13.38.32.55.31a12.37,12.37,0,0,0,3,0,9.93,9.93,0,0,1,2-.26,2.07,2.07,0,0,1,.88.18.57.57,0,0,1,.25.9,3.22,3.22,0,0,1-1.85,1.3,13.34,13.34,0,0,1-4.41.36c-1.77-.23-3.56-.38-5.32-.7a17.5,17.5,0,0,1-3.37-1,28.43,28.43,0,0,0-5.38-1.19,41.37,41.37,0,0,0-6.58-.38c-1.27,0-2.54.2-3.82.25-.44,0-1.18.37-1.29-.36-.08-.51.62-.56,1-.72.15,0,.33,0,.44-.14a4.39,4.39,0,0,1,2.55-.92,4.33,4.33,0,0,0,.65-.26,11.45,11.45,0,0,1-.68-2.08,12,12,0,0,1,.15-2.19c-.17-.21-.43-.09-.61.06a12.72,12.72,0,0,0-2.19,1.93c-.67.89-1.6,1.46-2.28,2.31-.22.28-.72.33-1.06.48-.3-.32-.12-.55,0-.77a12.88,12.88,0,0,1,2.42-3.41,13.53,13.53,0,0,1,2.43-1.89,15.23,15.23,0,0,1,4.92-2.09,11.7,11.7,0,0,1,4,0,7.9,7.9,0,0,0,1.06.14,16.15,16.15,0,0,1,4.36.81l7.42,1.92c.74.2,1.5.36,2.22.63a8,8,0,0,0,2.55.44,10.28,10.28,0,0,1,1.67.17A4.06,4.06,0,0,1,222.47,170.67Zm-9.76,5.42a8.21,8.21,0,0,1,.53-.64,3.54,3.54,0,0,0,.87-3.34,1.45,1.45,0,0,0-1.12-1.33c-1-.26-2-.57-3-.82-1.59-.41-3.19-.74-4.76-1.2a20.32,20.32,0,0,0-3.92-.72,25.43,25.43,0,0,0-2.76-.06,1.08,1.08,0,0,0-.71.23,2.62,2.62,0,0,0-1,2.5,3.76,3.76,0,0,0,2.19,2.82,11.2,11.2,0,0,0,4.21.74,21.39,21.39,0,0,1,6.45,1.19A9.56,9.56,0,0,0,212.71,176.09Z"/><path class="cls-2" d="M193.76,185.89a2.22,2.22,0,0,1,1.73-1.6c2-.35,3.9-.78,5.86-1.15a12.44,12.44,0,0,1,6.48.49,8.18,8.18,0,0,0,2.65.7,1.79,1.79,0,0,1,1.53,1.15.69.69,0,0,1-.32,1,2.79,2.79,0,0,1-2.23.13c-1-.38-2-.73-3-1.06a8.1,8.1,0,0,0-4.08-.4,4.08,4.08,0,0,1-.61,0c-2.29.08-4.56.42-6.84.66A9.94,9.94,0,0,1,193.76,185.89Z"/></svg>